<svg width="24" height="24" viewBox="0 0 24 24" fill="none" xmlns="http://www.w3.org/2000/svg">
<path d="M18 1.5C18.5523 1.5 19 1.94772 19 2.5V15.5C19 16.0128 18.614 16.4355 18.1166 16.4933L18 16.5H6C5.11154 16.5 4.35445 17.0846 4.0954 17.8898C4.03321 18.0823 4 18.2873 4 18.5C4 19.5544 4.81588 20.4182 5.85074 20.4945L6 20.5H20V3.5C20 2.98716 20.386 2.56449 20.8834 2.50673L21 2.5C21.5128 2.5 21.9355 2.88604 21.9933 3.38338L22 3.5V21.5C22 22.0128 21.614 22.4355 21.1166 22.4933L21 22.5H6C3.79086 22.5 2 20.7091 2 18.5V5.5C2 3.29086 3.79086 1.5 6 1.5H18ZM17.5 17.5C18.0523 17.5 18.5 17.9477 18.5 18.5C18.5 19.0128 18.114 19.4355 17.6166 19.4933L17.5 19.5H6.5C5.94772 19.5 5.5 19.0523 5.5 18.5C5.5 17.9872 5.88604 17.5645 6.38338 17.5067L6.5 17.5H17.5ZM17 3.5H6C4.89543 3.5 4 4.39543 4 5.5L3.99953 15.0354C4.11481 14.9687 4.23374 14.9076 4.35593 14.8524C4.36181 14.8508 4.36715 14.8484 4.37249 14.846C4.43466 14.8172 4.49827 14.7908 4.56269 14.766C4.57471 14.7621 4.58659 14.7577 4.59847 14.7532L4.60203 14.7519C4.7484 14.6965 4.89896 14.6502 5.05302 14.6128C5.0588 14.6118 5.06411 14.6105 5.06942 14.6092L5.05302 14.6128C5.1236 14.5956 5.19492 14.5804 5.26692 14.567C5.28868 14.5633 5.31034 14.5594 5.33207 14.5557C5.38708 14.5463 5.44253 14.5381 5.49833 14.5312C5.52348 14.528 5.54874 14.5251 5.57409 14.5224C5.64892 14.5145 5.72474 14.5086 5.80075 14.5049L5.57409 14.5224C5.64892 14.5145 5.72474 14.5086 5.80075 14.5049L6 14.5H17V3.5Z" fill="#1D1E22"/>
<path d="M17 3.5H5.99999C4.89542 3.5 3.99999 4.39543 3.99999 5.5L3.99951 15.0354C4.1148 14.9687 4.23372 14.9076 4.35592 14.8524C4.3618 14.8508 4.36713 14.8484 4.37248 14.846C4.43464 14.8172 4.49825 14.7908 4.56267 14.766C4.5747 14.7621 4.58657 14.7577 4.59846 14.7532L4.60202 14.7519C4.74838 14.6965 4.89895 14.6502 5.053 14.6128C5.12359 14.5956 5.19491 14.5804 5.26691 14.567L5.33205 14.5557C5.38707 14.5463 5.44251 14.5381 5.49831 14.5312C5.52347 14.528 5.54872 14.5251 5.57407 14.5224L5.57271 14.5226C5.64798 14.5146 5.72427 14.5087 5.80073 14.5049L5.99999 14.5H17V3.5Z" fill="current"/>
</svg>
