<svg width="24" height="22" viewBox="0 0 24 22" fill="none" xmlns="http://www.w3.org/2000/svg">
<path d="M21 13H20V3H21C21.2652 3 21.5196 2.89464 21.7071 2.70711C21.8946 2.51957 22 2.26522 22 2C22 1.73478 21.8946 1.48043 21.7071 1.29289C21.5196 1.10536 21.2652 1 21 1H3C2.73478 1 2.48043 1.10536 2.29289 1.29289C2.10536 1.48043 2 1.73478 2 2C2 2.26522 2.10536 2.51957 2.29289 2.70711C2.48043 2.89464 2.73478 3 3 3H4V13H3C2.73478 13 2.48043 13.1054 2.29289 13.2929C2.10536 13.4804 2 13.7348 2 14C2 14.2652 2.10536 14.5196 2.29289 14.7071C2.48043 14.8946 2.73478 15 3 15H11V16.15L6.45 19.15C6.26333 19.2655 6.11988 19.4393 6.04177 19.6445C5.96366 19.8496 5.95523 20.0748 6.01779 20.2852C6.08035 20.4957 6.21042 20.6797 6.38793 20.8089C6.56544 20.938 6.78053 21.0052 7 21C7.1966 21.0022 7.38896 20.9428 7.55 20.83L11 18.55V20C11 20.2652 11.1054 20.5196 11.2929 20.7071C11.4804 20.8946 11.7348 21 12 21C12.2652 21 12.5196 20.8946 12.7071 20.7071C12.8946 20.5196 13 20.2652 13 20V18.55L16.45 20.83C16.611 20.9428 16.8034 21.0022 17 21C17.2136 20.9984 17.4212 20.9283 17.5921 20.8002C17.7631 20.672 17.8885 20.4925 17.95 20.2879C18.0115 20.0832 18.0058 19.8643 17.9338 19.6631C17.8619 19.462 17.7273 19.2892 17.55 19.17L13 16.17V15H21C21.2652 15 21.5196 14.8946 21.7071 14.7071C21.8946 14.5196 22 14.2652 22 14C22 13.7348 21.8946 13.4804 21.7071 13.2929C21.5196 13.1054 21.2652 13 21 13ZM18 13H6V3H18V13ZM9.61 11.26C9.87653 11.4175 10.1804 11.5005 10.49 11.5005C10.7996 11.5005 11.1035 11.4175 11.37 11.26L14.37 9.52C14.6265 9.36259 14.8383 9.14204 14.9852 8.87943C15.1322 8.61683 15.2093 8.32093 15.2093 8.02C15.2093 7.71907 15.1322 7.42317 14.9852 7.16057C14.8383 6.89796 14.6265 6.67741 14.37 6.52L11.37 4.78C11.1035 4.62253 10.7996 4.53946 10.49 4.53946C10.1804 4.53946 9.87653 4.62253 9.61 4.78C9.34143 4.9314 9.11879 5.15259 8.96564 5.42017C8.81248 5.68774 8.73452 5.99174 8.74 6.3V9.78C8.74167 10.0815 8.82302 10.3772 8.97581 10.6371C9.1286 10.897 9.34739 11.1119 9.61 11.26ZM10.74 6.68L13 8L10.72 9.32L10.74 6.68Z" fill="current"/>
</svg>
