<svg width="28" height="28" viewBox="0 0 28 28" fill="none" xmlns="http://www.w3.org/2000/svg">
<path d="M11.6667 5.83335C11.6667 5.18902 12.189 4.66669 12.8333 4.66669H15.1667C15.811 4.66669 16.3333 5.18902 16.3333 5.83335C16.3333 6.47769 15.811 7.00002 15.1667 7.00002H12.8333C12.189 7.00002 11.6667 6.47769 11.6667 5.83335Z" fill="current"/>
<path d="M11.6667 21C11.0223 21 10.5 21.5224 10.5 22.1667C10.5 22.811 11.0223 23.3334 11.6667 23.3334H16.3333C16.9777 23.3334 17.5 22.811 17.5 22.1667C17.5 21.5224 16.9777 21 16.3333 21H11.6667Z" fill="current"/>
<path fill-rule="evenodd" clip-rule="evenodd" d="M5.25 4.08335C5.25 2.47252 6.55584 1.16669 8.16667 1.16669H19.8333C21.4442 1.16669 22.75 2.47252 22.75 4.08335V23.9167C22.75 25.5275 21.4442 26.8334 19.8333 26.8334H8.16667C6.55584 26.8334 5.25 25.5275 5.25 23.9167V4.08335ZM8.16667 3.50002C7.8445 3.50002 7.58333 3.76119 7.58333 4.08335V23.9167C7.58333 24.2389 7.8445 24.5 8.16667 24.5H19.8333C20.1555 24.5 20.4167 24.2389 20.4167 23.9167V4.08335C20.4167 3.76119 20.1555 3.50002 19.8333 3.50002H8.16667Z" fill="current"/>
</svg>
