<svg width="24" height="24" viewBox="0 0 24 24" fill="none" xmlns="http://www.w3.org/2000/svg">
<path d="M10 5C10 4.44772 10.4477 4 11 4H13C13.5523 4 14 4.44772 14 5C14 5.55228 13.5523 6 13 6H11C10.4477 6 10 5.55228 10 5Z" fill="#1D2130"/>
<path d="M10 18C9.44772 18 9 18.4477 9 19C9 19.5523 9.44772 20 10 20H14C14.5523 20 15 19.5523 15 19C15 18.4477 14.5523 18 14 18H10Z" fill="#1D2130"/>
<path fill-rule="evenodd" clip-rule="evenodd" d="M4.5 3.5C4.5 2.11929 5.61929 1 7 1H17C18.3807 1 19.5 2.11929 19.5 3.5V20.5C19.5 21.8807 18.3807 23 17 23H7C5.61929 23 4.5 21.8807 4.5 20.5V3.5ZM7 3C6.72386 3 6.5 3.22386 6.5 3.5V20.5C6.5 20.7761 6.72386 21 7 21H17C17.2761 21 17.5 20.7761 17.5 20.5V3.5C17.5 3.22386 17.2761 3 17 3H7Z" fill="#1D2130"/>
</svg>
