<svg width="13" height="12" viewBox="0 0 13 12" fill="none" xmlns="http://www.w3.org/2000/svg">
<path fill-rule="evenodd" clip-rule="evenodd" d="M3.31692 0.70942C3.48005 0.934126 3.42715 1.2464 3.19878 1.40691L1.42025 2.65691C1.19188 2.81741 0.874512 2.76536 0.71139 2.54066C0.548269 2.31595 0.601163 2.00368 0.829533 1.84317L2.60807 0.593172C2.83644 0.432668 3.1538 0.484713 3.31692 0.70942ZM9.0959 0.70942C9.25902 0.484713 9.57639 0.432668 9.80476 0.593172L11.5833 1.84317C11.8117 2.00368 11.8646 2.31595 11.7014 2.54066C11.5383 2.76536 11.2209 2.81741 10.9926 2.65691L9.21404 1.40691C8.98567 1.2464 8.93278 0.934126 9.0959 0.70942ZM1.04019 6.50005C1.04019 3.69258 3.35317 1.41671 6.20641 1.41671C9.05963 1.41671 11.3726 3.69258 11.3726 6.50005C11.3726 9.30749 9.05963 11.5834 6.20641 11.5834C3.35317 11.5834 1.04019 9.30749 1.04019 6.50005ZM6.20641 2.41671C3.91446 2.41671 2.05649 4.24487 2.05649 6.50005C2.05649 8.75521 3.91446 10.5834 6.20641 10.5834C8.49834 10.5834 10.3563 8.75521 10.3563 6.50005C10.3563 4.24487 8.49834 2.41671 6.20641 2.41671ZM6.14534 3.33843C6.42598 3.33846 6.65346 3.56234 6.65343 3.83848L6.65315 6.38354L8.47905 8.18015C8.6775 8.37541 8.6775 8.69199 8.47905 8.88725C8.2806 9.08252 7.95886 9.08252 7.76042 8.88725L5.78566 6.94418C5.69035 6.8504 5.63681 6.7232 5.63682 6.59057L5.63713 3.83837C5.63716 3.56223 5.86469 3.3384 6.14534 3.33843Z" fill="#1D1E22"/>
<path fill-rule="evenodd" clip-rule="evenodd" d="M2.05664 6.49985C2.05664 4.24466 3.91461 2.4165 6.20656 2.4165C8.49849 2.4165 10.3565 4.24466 10.3565 6.49985C10.3565 8.755 8.49849 10.5832 6.20656 10.5832C3.91461 10.5832 2.05664 8.755 2.05664 6.49985ZM6.14548 3.33822C6.42613 3.33825 6.65361 3.56213 6.65358 3.83828L6.6533 6.38334L8.4792 8.17994C8.67764 8.37521 8.67764 8.69179 8.4792 8.88705C8.28075 9.08231 7.95901 9.08231 7.76056 8.88705L5.78581 6.94397C5.6905 6.85019 5.63696 6.72299 5.63697 6.59037L5.63728 3.83817C5.63731 3.56202 5.86484 3.33819 6.14548 3.33822Z" fill="#C3FF86"/>
</svg>
