<svg width="24" height="24" viewBox="0 0 24 24" fill="none" xmlns="http://www.w3.org/2000/svg">
<path d="M11.14 3.57139C11.3783 3.4762 11.6439 3.4762 11.8822 3.57139L22.3933 7.77139C22.8208 7.94222 23.0304 8.33451 23.022 8.72244L23.0222 8.75505V13.3666C23.0222 13.9189 22.5745 14.3666 22.0222 14.3666C21.5094 14.3666 21.0867 13.9806 21.0289 13.4833L21.0222 13.3666L21.022 10.176L18.244 11.286L18.2444 17.1334C18.2444 17.4014 18.1369 17.6581 17.9458 17.8461C17.5898 18.1965 16.9714 18.6909 16.1286 19.1811C14.7153 20.0031 13.1622 20.5 11.5111 20.5C9.86005 20.5 8.30691 20.0031 6.89356 19.1811C6.05079 18.6909 5.43239 18.1965 5.07636 17.8461C4.91717 17.6895 4.81593 17.485 4.7866 17.2662L4.77775 17.1334L4.777 11.286L0.628947 9.62861C-0.169716 9.30948 -0.207748 8.21759 0.514853 7.82487L0.628947 7.77139L11.14 3.57139ZM16.244 12.085L11.8822 13.8286C11.6439 13.9238 11.3783 13.9238 11.14 13.8286L6.777 12.085V16.679L6.83005 16.7221C7.06255 16.908 7.32245 17.0948 7.60675 17.2748L7.89907 17.4522C9.02896 18.1094 10.2499 18.5 11.5111 18.5C12.7723 18.5 13.9932 18.1094 15.1231 17.4522C15.4234 17.2776 15.7002 17.0937 15.9506 16.908L16.1921 16.7221L16.244 16.679V12.085ZM11.511 5.576L3.695 8.7L11.511 11.823L19.327 8.7L11.511 5.576Z" fill="#1D1E22"/>
<path d="M11.5111 5.57617L3.69507 8.70017L11.5111 11.8232L19.3271 8.70017L11.5111 5.57617Z" fill="current"/>
</svg>
