<svg width="250" height="189" viewBox="0 0 250 189" fill="none" xmlns="http://www.w3.org/2000/svg">
<g clip-path="url(#clip0_187_3953)">
<path opacity="0.18" d="M44.5294 176.611C47.8327 177.498 51.1815 178.205 54.5611 178.731C73.4901 181.717 92.8818 179.985 111.9 182.284C132.038 184.702 151.594 191.644 171.897 186.643C188.168 182.627 202.634 172.372 213.218 159.549C228.057 141.635 236.163 119.035 242.343 96.5831C249.27 71.4595 253.017 41.2754 235.222 22.2425C221.01 7.01607 197.902 4.61269 177.092 5.41879C166.09 5.8517 155.088 6.91158 144.086 6.55331C133.083 6.19504 124.574 2.5825 114.438 0.582175C98.2858 -2.62731 77.655 8.18044 66.4589 18.9136C53.0235 31.7216 45.5594 49.5604 33.1242 63.294C24.7645 72.5045 14.1057 79.9983 8.44794 91.0747C5.68696 96.9798 3.89262 103.29 3.1335 109.764C1.10326 123.304 0.983839 137.784 7.28354 149.935C14.5386 163.937 29.0488 172.402 44.5294 176.611Z" fill="#5D5FEF"/>
<path d="M177.958 25.5864C177.958 25.5864 224.803 46.3958 226.415 75.3707C228.027 104.346 140.578 99.1209 121.455 111.616C102.332 124.11 19.4504 143.098 21.0477 121.334C22.645 99.5688 42.3353 92.0601 42.3353 92.0601" stroke="white" stroke-width="1.16368" stroke-miterlimit="10"/>
<path opacity="0.18" d="M55.2928 119.154L83.8803 42.8728C84.3478 41.6314 85.1826 40.562 86.2735 39.8072C87.3643 39.0524 88.6594 38.6481 89.9859 38.6482H210.367C212.094 38.6521 213.75 39.3412 214.97 40.5641C216.19 41.7871 216.876 43.4441 216.876 45.1717C216.874 45.8347 216.773 46.4938 216.577 47.1272L188.915 133.709C188.464 135.109 187.551 136.315 186.325 137.128C185.099 137.942 183.633 138.315 182.167 138.187L60.8312 127.887C59.107 127.746 57.5094 126.926 56.3896 125.608C55.2698 124.289 54.7196 122.58 54.8599 120.856C54.9298 120.272 55.0753 119.7 55.2928 119.154Z" fill="#5D5FEF"/>
<path d="M213.353 39.4991L185.646 126.125C185.187 127.524 184.27 128.727 183.043 129.54C181.816 130.352 180.35 130.727 178.884 130.604L142.548 127.528L57.6218 120.274C56.7681 120.208 55.9358 119.974 55.1728 119.585C54.4099 119.196 53.7314 118.66 53.1764 118.008C52.6214 117.356 52.2009 116.6 51.939 115.785C51.6772 114.97 51.5791 114.111 51.6506 113.257C51.711 112.645 51.8515 112.042 52.0686 111.466L58.8609 93.5527L71.1468 60.7115L80.671 35.3342C81.1384 34.0928 81.9733 33.0234 83.0641 32.2686C84.155 31.5138 85.4501 31.1095 86.7766 31.1096H207.158C208.012 31.1096 208.859 31.278 209.648 31.6051C210.438 31.9321 211.155 32.4116 211.76 33.0159C212.364 33.6203 212.844 34.3378 213.171 35.1274C213.498 35.9171 213.666 36.7634 213.666 37.6182C213.657 38.2574 213.552 38.8915 213.353 39.4991Z" fill="white"/>
<path opacity="0.18" d="M94.0913 114.87L102.974 90.4924H139.936L130.292 115.541L94.0913 114.87Z" fill="#5D5FEF"/>
<path d="M213.352 39.4991L185.646 126.125C185.187 127.524 184.27 128.727 183.043 129.54C181.815 130.352 180.35 130.727 178.883 130.604L142.548 127.529L176.062 36.5583L176.315 35.8567L213.546 36.2448C213.541 36.3542 213.541 36.4638 213.546 36.5732C213.706 37.5505 213.64 38.5514 213.352 39.4991Z" fill="#5D5FEF"/>
<path opacity="0.18" d="M95.6884 46.3658L86.5374 76.7141C86.4025 77.2028 86.1097 77.6332 85.7047 77.9383C85.2997 78.2434 84.8052 78.406 84.2982 78.4009L59.9951 77.6993L72.2959 44.8581L93.6433 43.6041C93.9821 43.5898 94.3192 43.6587 94.6252 43.8049C94.9312 43.951 95.1967 44.1699 95.3985 44.4424C95.6003 44.7149 95.7323 45.0327 95.7828 45.368C95.8334 45.7033 95.8009 46.0459 95.6884 46.3658Z" fill="#5D5FEF"/>
<path d="M39.9915 69.2503L49.456 42.4549C49.6011 42.0247 49.8696 41.6468 50.2279 41.3681C50.5863 41.0894 51.0187 40.9222 51.4713 40.8875L91.3594 38.5289C91.699 38.5183 92.036 38.59 92.3418 38.738C92.6476 38.8859 92.9131 39.1057 93.1155 39.3785C93.3179 39.6513 93.4513 39.9691 93.5042 40.3046C93.5572 40.6402 93.5281 40.9836 93.4195 41.3054L84.2685 71.6686C84.1319 72.1576 83.8391 72.5885 83.4349 72.8957C83.0306 73.2029 82.5371 73.3696 82.0293 73.3704L41.8128 72.1613C41.4771 72.1418 41.151 72.0423 40.8617 71.8709C40.5724 71.6995 40.3284 71.4614 40.15 71.1763C39.9717 70.8913 39.8643 70.5677 39.8367 70.2326C39.8091 69.8975 39.8622 69.5607 39.9915 69.2503Z" fill="white"/>
<path d="M213.606 36.2447V36.588V36.9612L176.062 36.5731L80.6709 35.6028V34.8862L176.316 35.8565L213.547 36.2447H213.606Z" fill="#5D5FEF"/>
<path d="M53.0537 66.4439H47.9482L50.6353 59.5024H55.7258L53.0537 66.4439Z" fill="#5D5FEF"/>
<path d="M59.3383 66.4438H54.2329L59.6966 52.322H64.8021L59.3383 66.4438Z" fill="#5D5FEF"/>
<path d="M65.6382 66.4439H60.5327L63.8617 57.8455H68.9522L65.6382 66.4439Z" fill="#5D5FEF"/>
<path d="M71.9228 66.4438H66.8174L74.0128 47.8438H79.1182L71.9228 66.4438Z" fill="#5D5FEF"/>
<path d="M59.3383 66.4438H54.2329L59.6966 52.322H64.8021L59.3383 66.4438Z" fill="url(#paint0_linear_187_3953)"/>
<path d="M71.9228 66.4438H66.8174L74.0128 47.8438H79.1182L71.9228 66.4438Z" fill="url(#paint1_linear_187_3953)"/>
<path d="M78.2226 66.4439H73.1172L82.3129 42.6489H87.4184L78.2226 66.4439Z" fill="#5D5FEF"/>
<path d="M196.095 58.2036C196.692 55.993 196.397 53.6365 195.273 51.6417C194.149 49.6468 192.286 48.1731 190.086 47.538C187.887 46.9029 185.525 47.1572 183.511 48.2461C181.497 49.335 179.991 51.1715 179.317 53.3599C178.644 55.5484 178.857 57.9137 179.911 59.9466C180.964 61.9795 182.774 63.5172 184.951 64.2287C187.127 64.9401 189.496 64.7683 191.547 63.7503C193.598 62.7323 195.167 60.9495 195.916 58.7858L196.006 58.5022L196.095 58.2036Z" fill="white"/>
<path d="M177.002 113.631C177.452 111.464 177.066 109.207 175.922 107.312C174.777 105.417 172.96 104.025 170.833 103.413C168.705 102.801 166.426 103.016 164.45 104.014C162.474 105.012 160.949 106.719 160.178 108.794C160.178 108.884 160.178 108.988 160.178 109.078C160.178 109.167 160.178 109.272 160.074 109.361C159.483 111.487 159.715 113.758 160.725 115.72C161.735 117.681 163.448 119.19 165.522 119.944C167.595 120.698 169.877 120.642 171.911 119.787C173.945 118.932 175.582 117.341 176.495 115.333C176.584 115.049 176.659 114.765 176.749 114.482C176.838 114.198 176.898 113.914 177.002 113.631Z" fill="white"/>
<path d="M185.93 82.954C185.93 80.6301 185.006 78.4012 183.363 76.7579C181.72 75.1146 179.491 74.1914 177.167 74.1914C174.843 74.1914 172.614 75.1146 170.97 76.7579C169.327 78.4012 168.404 80.6301 168.404 82.954V83.5661C168.404 85.8901 169.327 88.1189 170.97 89.7622C172.614 91.4055 174.843 92.3287 177.167 92.3287C179.491 92.3287 181.72 91.4055 183.363 89.7622C185.006 88.1189 185.93 85.8901 185.93 83.5661V82.954Z" fill="white"/>
<path d="M187.378 55.8003L189.438 49.1873C188.856 49.0082 188.254 48.9029 187.646 48.8738C186.126 48.8166 184.629 49.2605 183.386 50.137C182.142 51.0136 181.221 52.2743 180.764 53.7253C180.585 54.307 180.48 54.9088 180.451 55.5167C180.432 56.1232 180.487 56.7298 180.615 57.323C180.879 58.5086 181.456 59.6016 182.287 60.4877C183.106 61.3888 184.151 62.0549 185.313 62.4171C186.476 62.7793 187.714 62.8243 188.9 62.5477C189.485 62.4109 190.051 62.2054 190.587 61.9357C191.126 61.6507 191.628 61.2996 192.08 60.8907C192.961 60.075 193.619 59.0472 193.991 57.9051L187.378 55.8003Z" fill="#5D5FEF"/>
<path d="M177.286 83.2375V76.311C176.074 76.3202 174.886 76.6443 173.837 77.2515C173.29 77.5466 172.787 77.9186 172.345 78.3561C171.481 79.2134 170.859 80.2839 170.543 81.459C170.227 82.6341 170.227 83.872 170.544 85.0469C170.861 86.2219 171.483 87.2921 172.347 88.1489C173.211 89.0056 174.287 89.6185 175.465 89.9252C176.636 90.2533 177.876 90.2533 179.047 89.9252C179.631 89.7743 180.193 89.5485 180.719 89.2535L177.286 83.2375Z" fill="#5D5FEF"/>
<path d="M168.434 111.78L170.583 105.196C169.425 104.827 168.192 104.76 167.001 105.002C165.508 105.319 164.161 106.12 163.171 107.281C162.18 108.442 161.6 109.897 161.522 111.421C161.489 112.022 161.539 112.625 161.671 113.213C161.793 113.804 161.994 114.376 162.268 114.914C162.671 115.722 163.229 116.442 163.91 117.034C164.592 117.626 165.383 118.077 166.239 118.363L168.389 111.765L168.434 111.78Z" fill="#5D5FEF"/>
<path d="M80.5664 85.3873C80.4921 85.6692 80.33 85.9201 80.1036 86.1038C79.7798 86.286 79.4153 86.3835 79.0437 86.3874C78.6497 86.4155 78.2694 86.544 77.939 86.7606C77.8945 86.8485 77.8712 86.9457 77.8712 87.0443C77.8712 87.1428 77.8945 87.24 77.939 87.3279L78.372 89.7462C78.4316 89.9357 78.4316 90.1389 78.372 90.3284C78.3119 90.4279 78.2318 90.5139 78.1367 90.5807C78.0416 90.6475 77.9336 90.6938 77.8196 90.7165C76.9538 91.0599 75.879 91.3584 75.1923 90.7165C74.8628 90.351 74.6406 89.9016 74.5504 89.4178C73.6533 86.7069 73.1996 83.8689 73.2068 81.0134C73.1832 80.1501 73.3472 79.292 73.6874 78.4982C74.0276 77.7045 74.5359 76.9939 75.1773 76.4156C76.4139 75.5476 77.9396 75.1944 79.4319 75.4304C79.7643 75.4698 80.0822 75.5896 80.3579 75.7795C80.6336 75.9694 80.8589 76.2236 81.0142 76.5201C81.2083 76.953 81.0142 77.371 81.0142 77.8338C81.0062 78.513 81.0511 79.1918 81.1486 79.864C81.2124 80.1764 81.2921 80.4853 81.3875 80.7895C81.5031 81.0462 81.5834 81.3174 81.6263 81.5956C81.6024 82.1205 81.454 82.6321 81.1934 83.0884C80.9559 83.6318 80.771 84.1966 80.641 84.7752C80.6363 84.9812 80.6113 85.1862 80.5664 85.3873Z" fill="#FDB9A9"/>
<path d="M82.5068 103.301C82.5068 103.301 85.4925 106.495 88.0004 106.495C90.5084 106.495 101.57 96.0456 101.57 96.0456C102.164 95.7636 102.696 95.3643 103.132 94.8717C103.568 94.3792 103.9 93.8036 104.108 93.1795C104.212 92.7466 104.183 92.2988 104.257 91.8659C104.452 90.9919 104.845 90.1746 105.407 89.4774C105.501 89.3822 105.573 89.2671 105.617 89.1405C105.661 89.0139 105.676 88.8791 105.66 88.7459C105.571 88.4175 105.183 88.313 104.854 88.2533C103.819 87.9501 102.707 88.0405 101.734 88.5071C101.046 89.07 100.568 89.8482 100.376 90.7164C100.079 90.2884 99.6643 89.9563 99.1816 89.761C99.036 89.8455 98.9247 89.9786 98.8674 90.1369C98.8101 90.2952 98.8103 90.4687 98.8681 90.6268C98.9794 90.9427 99.109 91.2517 99.2563 91.5524C99.3566 92.1179 99.2917 92.7004 99.0692 93.2299C98.8468 93.7595 98.4764 94.2136 98.0023 94.5379C97.424 94.9857 96.8099 95.3851 96.1661 95.7322L89.3887 99.688C88.702 100.091 87.8959 100.509 87.1495 100.136C86.8062 99.9567 86.5673 99.6134 86.1941 99.4492C85.9044 99.386 85.6033 99.3996 85.3205 99.4887C85.0377 99.5777 84.7831 99.739 84.5819 99.9567C83.6787 100.925 82.9738 102.061 82.5068 103.301Z" fill="#FDB9A9"/>
<path d="M55.5018 147.517C55.3934 148.419 55.0903 149.286 54.6134 150.06C54.1366 150.833 53.4974 151.493 52.74 151.995C49.9634 153.294 46.3956 153.622 43.4099 154.264C41.6036 154.667 39.7973 155.07 38.0209 155.548C36.528 155.951 34.9307 155.906 33.9156 157.22C33.3035 157.996 32.9005 159.101 31.9451 159.325C31.6026 159.378 31.252 159.331 30.9363 159.187C30.6206 159.044 30.3538 158.812 30.1686 158.519C29.8078 157.917 29.6025 157.234 29.5715 156.533C29.5269 156.271 29.5269 156.004 29.5715 155.742C29.6506 155.464 29.7938 155.208 29.9895 154.996C31.014 154.062 32.256 153.4 33.6021 153.07C34.7599 152.663 35.8831 152.164 36.9609 151.577C37.8446 151.142 38.7635 150.783 39.7077 150.502L45.1565 148.517C46.4403 148.054 48.3661 147.875 48.8587 146.412C49.0436 145.695 49.1389 144.958 49.1424 144.218C49.2475 142.75 49.6976 141.328 50.456 140.068C50.5482 139.856 50.6983 139.675 50.889 139.545C51.1135 139.424 51.3653 139.362 51.6204 139.366C52.3164 139.284 53.022 139.365 53.6805 139.605C54.1085 139.812 54.4912 140.103 54.8064 140.459C55.1215 140.815 55.363 141.23 55.5167 141.68C55.8039 142.586 55.9153 143.539 55.8451 144.486C55.8182 145.505 55.7033 146.518 55.5018 147.517Z" fill="#FDB9A9"/>
<path d="M30.9747 154.413C30.8851 154.802 30.5865 155.115 30.482 155.503C30.4223 155.819 30.4223 156.143 30.482 156.459L30.7657 157.951C30.7723 158.108 30.8119 158.262 30.8818 158.402C30.9517 158.543 31.0504 158.667 31.1715 158.767C31.2926 158.867 31.4333 158.941 31.5846 158.983C31.7358 159.025 31.8942 159.034 32.0495 159.011C32.1118 159.016 32.1723 159.034 32.2266 159.065C32.2808 159.096 32.3275 159.139 32.363 159.19C32.3926 159.272 32.3926 159.362 32.363 159.444L31.945 161.34C31.7733 162.134 31.4972 162.902 31.124 163.624C31.0065 163.655 30.8831 163.655 30.7657 163.624C29.8103 163.624 29.4371 161.206 29.0937 160.295C28.8101 159.373 28.7336 158.399 28.8698 157.444C28.8698 156.921 28.9594 156.414 29.034 155.951C29.0392 155.441 29.1352 154.935 29.3176 154.458C29.3776 154.341 29.47 154.244 29.5838 154.177C29.6976 154.111 29.828 154.079 29.9596 154.085C30.2581 154.1 31.0792 153.981 30.9747 154.413Z" fill="#5D5FEF"/>
<path d="M71.4452 147.8C71.9662 148.559 72.3115 149.424 72.4561 150.333C72.6007 151.242 72.541 152.172 72.2812 153.055C71.0123 155.832 68.5044 158.414 66.6682 160.832C65.5337 162.325 64.429 163.818 63.3691 165.311C62.5032 166.58 61.2642 167.58 61.3388 169.237C61.3388 170.222 61.7867 171.327 61.2045 172.118C60.9768 172.38 60.6778 172.57 60.3439 172.666C60.0099 172.761 59.6554 172.758 59.3235 172.655C58.6622 172.432 58.0669 172.047 57.5919 171.536C57.3952 171.36 57.2288 171.153 57.0992 170.924C56.9779 170.657 56.9217 170.365 56.935 170.073C57.1005 168.697 57.6143 167.387 58.4279 166.266C59.0181 165.19 59.5175 164.067 59.9207 162.907C60.3082 161.996 60.7778 161.121 61.3239 160.295L64.1752 155.249C64.8619 154.07 66.2204 152.682 65.668 151.249C65.3446 150.583 64.9383 149.961 64.4588 149.398C63.5916 148.213 63.0093 146.844 62.757 145.397C62.7124 145.17 62.7124 144.937 62.757 144.71C62.8469 144.473 62.9959 144.262 63.1899 144.098C63.6754 143.585 64.2733 143.192 64.9365 142.949C65.3945 142.825 65.8727 142.796 66.3422 142.863C66.8118 142.93 67.2629 143.091 67.6684 143.337C68.4787 143.832 69.1837 144.481 69.7434 145.248C70.3822 146.049 70.9516 146.903 71.4452 147.8Z" fill="#FDB9A9"/>
<path d="M57.2633 168.953C57.4425 169.311 57.4276 169.744 57.6067 170.103C57.7732 170.376 57.9974 170.611 58.2635 170.789L59.413 171.73C59.547 171.846 59.698 171.942 59.8609 172.013C60.0745 172.048 60.293 172.04 60.5033 171.989C60.7136 171.937 60.9114 171.844 61.085 171.715C61.1179 171.675 61.1613 171.644 61.2103 171.627C61.2594 171.61 61.3122 171.606 61.363 171.617C61.4139 171.628 61.4608 171.653 61.4986 171.688C61.5364 171.724 61.5638 171.769 61.5776 171.819L62.4882 173.551C62.8796 174.259 63.171 175.017 63.354 175.805C63.3001 175.918 63.2179 176.016 63.1152 176.089C62.3688 176.701 60.5326 175.103 59.6966 174.596C58.8744 174.111 58.1665 173.454 57.6216 172.67C57.3231 172.252 57.0394 171.819 56.7558 171.401C56.4493 171.02 56.2072 170.592 56.0392 170.132C56.0089 169.999 56.0165 169.86 56.0614 169.73C56.1063 169.601 56.1865 169.487 56.293 169.401C56.4871 169.177 57.0394 168.565 57.2633 168.953Z" fill="#5D5FEF"/>
<path d="M86.2541 99.5237C86.1956 99.7206 86.0752 99.8933 85.9108 100.016C84.7762 101.106 83.6267 102.166 82.5071 103.256C82.1459 103.601 81.7564 103.916 81.3427 104.196C80.9695 104.42 80.5665 104.569 80.1933 104.793C80.0669 104.873 79.9471 104.963 79.835 105.062C79.0438 105.788 78.4308 106.687 78.0436 107.689C77.76 108.301 77.4913 108.943 77.2673 109.585C76.6694 111.253 76.2247 112.972 75.9387 114.72C74.222 124.692 76.4612 134.858 77.6256 144.86C77.7749 145.964 77.8794 147.069 77.969 148.174C77.969 148.636 78.0585 149.114 78.0884 149.592C78.1661 150.015 78.0977 150.452 77.8943 150.831C77.6555 151.111 77.3384 151.314 76.9837 151.413C71.938 153.458 66.2503 155.07 61.13 153.249C57.8159 152.07 55.1587 149.592 52.2626 147.591C49.3666 145.591 45.7539 144.039 42.3652 145.024C42.4047 142.582 43.3093 140.233 44.918 138.396C45.4676 137.67 46.0715 136.986 46.7243 136.351L48.0678 135.022C52.5463 130.648 56.3828 126.872 58.7862 120.736C59.7566 118.243 59.9506 115.317 61.5927 113.138C63.0856 111.272 64.235 111.078 64.5784 108.57C65.0276 105.435 65.7417 102.344 66.7131 99.3297C67.6093 96.5974 69.0234 94.0632 70.8781 91.8658C71.6745 90.8475 72.6449 89.9783 73.7443 89.2982C74.8541 88.6122 76.1713 88.3424 77.4614 88.5369C78.1001 88.644 78.6996 88.9168 79.1999 89.328C79.7003 89.7393 80.084 90.2746 80.3127 90.8805C81.4622 94.2691 84.4478 95.747 86.075 98.9565C86.201 99.1179 86.2646 99.3193 86.2541 99.5237Z" fill="#5D5FEF"/>
<path d="M81.9098 75.2812C81.7899 75.805 81.5415 76.2907 81.1871 76.6947C80.8327 77.0986 80.3834 77.408 79.8796 77.595C77.5657 78.5056 74.3711 78.1324 75.013 81.4315C75.6359 83.8505 75.4363 86.4081 74.4457 88.7013C73.8029 89.5432 73.3543 90.5169 73.132 91.5525C73.1466 92.0102 73.2066 92.4652 73.3112 92.911C73.6429 94.841 73.2027 96.824 72.0857 98.4325C70.9687 100.041 69.2642 101.146 67.3399 101.509C67.0544 101.566 66.7649 101.601 66.4741 101.614C65.6007 101.55 64.7249 101.699 63.9214 102.047C63.1954 102.657 62.6743 103.475 62.4285 104.39C62.1175 105.354 61.5311 106.205 60.7417 106.839C59.1443 107.913 57.0096 107.257 55.2182 106.525C53.8637 106.044 52.5902 105.359 51.4414 104.495C50.8686 104.059 50.3925 103.508 50.0431 102.879C49.6936 102.25 49.4785 101.554 49.4112 100.838C49.5453 99.9057 49.5302 98.9584 49.3664 98.0312C49.0478 97.5098 48.6937 97.011 48.3065 96.5384C47.9667 95.7285 47.8311 94.8474 47.9118 93.9728C47.9925 93.0982 48.287 92.2568 48.7692 91.5227C48.9322 91.2642 49.039 90.9743 49.0827 90.6718C49.0593 90.3788 48.9887 90.0914 48.8737 89.8209C48.7048 88.8237 48.8619 87.7985 49.3218 86.8977C49.7816 85.9968 50.5197 85.2682 51.4265 84.8201C53.2623 83.9779 55.199 83.3759 57.1887 83.0287C58.6581 82.655 60.0192 81.9416 61.1626 80.946C62.306 79.9504 63.1998 78.7004 63.7721 77.2964C64.9215 74.8483 65.8919 72.1762 68.5192 70.9521C70.525 70.1823 72.6872 69.9092 74.8214 70.1561C76.9556 70.4031 78.9983 71.1627 80.7753 72.3703C81.2442 72.6767 81.6057 73.122 81.8091 73.6439C82.0125 74.1658 82.0477 74.7383 81.9098 75.2812Z" fill="#473F47"/>
<path d="M81.3423 104.241C80.9691 104.465 80.5661 104.614 80.1929 104.838C80.0639 104.914 79.9438 105.005 79.8346 105.107C78.5332 106.296 77.6356 107.862 77.2669 109.585C76.6693 111.259 76.2197 112.983 75.9234 114.735C75.2476 119.276 75.1123 123.881 75.5203 128.454C75.7331 130.119 75.6827 131.806 75.371 133.455C73.3887 131.118 72.1284 128.255 71.7435 125.215C71.5345 123.558 71.5942 121.856 71.2509 120.214C70.9821 119.035 70.5044 117.9 70.3104 116.706C70.3176 116.646 70.3176 116.586 70.3104 116.527C69.9969 114.377 70.8329 114.064 72.0421 112.825C73.2206 111.542 74.0978 110.012 74.6097 108.346C75.6049 105.361 76.6449 102.42 77.7297 99.5239C77.5058 100.315 80.4168 102.763 81.3423 104.241Z" fill="url(#paint2_linear_187_3953)"/>
<path opacity="0.38" d="M77.9838 148.218C72.8182 149.789 67.2833 149.648 62.2047 147.815C60.2896 147.17 58.5196 146.156 56.9947 144.83C56.4125 144.292 55.89 143.695 55.2929 143.188C54.383 142.443 53.3792 141.82 52.3073 141.337C49.9934 140.232 47.575 139.53 45.2313 138.575L44.9775 138.471C45.5316 137.748 46.1351 137.065 46.7838 136.426L48.1423 135.097H48.4409C49.9371 135.301 51.3986 135.707 52.785 136.306C54.9996 137.575 57.0933 139.044 59.0399 140.695C60.9975 142.01 63.0653 143.154 65.2202 144.113C66.578 144.811 68.0171 145.338 69.5046 145.681C70.9888 145.885 72.4918 145.915 73.983 145.77C75.258 145.8 76.5187 145.496 77.6404 144.89C77.7748 146.009 77.8793 147.099 77.9838 148.218Z" fill="white"/>
<path opacity="0.18" d="M104.66 83.2676L113.542 58.8755H150.52L140.861 83.9244L104.66 83.2676Z" fill="#5D5FEF"/>
<path d="M154.132 12.7783L169.434 19.8541L166.851 28.8705L154.132 12.7783Z" fill="#5D5FEF"/>
<path d="M154.132 12.7783H177.973L170.718 17.2119L154.132 12.7783Z" fill="#5D5FEF"/>
<path d="M173.479 23.8398L169.434 19.8541L154.132 12.7783L170.718 17.2119L173.479 23.8398Z" fill="#5D5FEF"/>
<path d="M173.479 23.8398L169.434 19.8541L154.132 12.7783L170.718 17.2119L173.479 23.8398Z" fill="url(#paint3_linear_187_3953)"/>
<path d="M173.479 23.8398L169.434 19.8541L154.132 12.7783L173.479 23.8398Z" fill="#5D5FEF"/>
</g>
<defs>
<linearGradient id="paint0_linear_187_3953" x1="56.1757" y1="37.2906" x2="95.0207" y2="127.384" gradientUnits="userSpaceOnUse">
<stop offset="0.01"/>
<stop offset="0.08" stop-opacity="0.69"/>
<stop offset="0.21" stop-opacity="0.32"/>
<stop offset="1" stop-opacity="0"/>
</linearGradient>
<linearGradient id="paint1_linear_187_3953" x1="-4404.77" y1="1690.98" x2="-3609.39" y2="695.45" gradientUnits="userSpaceOnUse">
<stop offset="0.01"/>
<stop offset="0.08" stop-opacity="0.69"/>
<stop offset="0.21" stop-opacity="0.32"/>
<stop offset="1" stop-opacity="0"/>
</linearGradient>
<linearGradient id="paint2_linear_187_3953" x1="48.0524" y1="110.227" x2="112.811" y2="124.529" gradientUnits="userSpaceOnUse">
<stop offset="0.01"/>
<stop offset="0.13" stop-opacity="0.69"/>
<stop offset="0.25" stop-opacity="0.32"/>
<stop offset="1" stop-opacity="0"/>
</linearGradient>
<linearGradient id="paint3_linear_187_3953" x1="2313.85" y1="-1316.23" x2="2340.8" y2="-963.731" gradientUnits="userSpaceOnUse">
<stop offset="0.01"/>
<stop offset="0.08" stop-opacity="0.69"/>
<stop offset="0.21" stop-opacity="0.32"/>
<stop offset="1" stop-opacity="0"/>
</linearGradient>
<clipPath id="clip0_187_3953">
<rect width="250" height="188.419" fill="white"/>
</clipPath>
</defs>
</svg>
