<svg width="24" height="24" viewBox="0 0 24 24" fill="none" xmlns="http://www.w3.org/2000/svg">
<path fill-rule="evenodd" clip-rule="evenodd" d="M5 8C5 4.134 8.13402 1 12 1C15.866 1 19 4.134 19 8C19 8.54721 18.9372 9.07975 18.8184 9.59081C21.2805 10.6751 23 13.1357 23 16C23 19.8659 19.866 23 16 23C14.5135 23 13.1338 22.5357 12.0001 21.7452C10.8662 22.5361 9.48729 23 8 23C4.134 23 1 19.8659 1 16C1 13.1357 2.71953 10.6751 5.18156 9.59081C5.06279 9.07975 5 8.54721 5 8ZM5.911 11.4556C4.1924 12.247 3 13.9852 3 16C3 18.7614 5.23858 21 8 21C10.7614 21 13 18.7614 13 16C13 15.6371 12.9615 15.284 12.8885 14.9441C12.5975 14.981 12.301 15 12 15C9.39073 15 7.11489 13.5724 5.911 11.4556ZM14.8183 14.4095C14.9372 14.9211 15 15.4536 15 16C15 17.6352 14.4393 19.1395 13.4996 20.331C14.235 20.7567 15.0885 21 16 21C18.7614 21 21 18.7614 21 16C21 13.9851 19.8076 12.2469 18.089 11.4556C17.3477 12.759 16.2 13.8011 14.8183 14.4095ZM12 3C9.23858 3 7 5.23858 7 8C7 10.7614 9.23858 13 12 13C14.7614 13 17 10.7614 17 8C17 5.23858 14.7614 3 12 3Z" fill="#1D1E22"/>
<path d="M7 8C7 5.23858 9.23858 3 12 3C14.7614 3 17 5.23858 17 8C17 10.7614 14.7614 13 12 13C9.23858 13 7 10.7614 7 8Z" fill="current"/>
</svg>
