<svg width="73" height="67" viewBox="0 0 73 67" fill="none" xmlns="http://www.w3.org/2000/svg">
<path fill-rule="evenodd" clip-rule="evenodd" d="M42.1134 18.4382C47.2838 16.0409 51.5931 14.3351 55.3148 12.8345C56.4565 18.6901 55.823 23.9926 54.4087 29.052C57.6107 30.5933 60.8435 31.5223 64.1117 31.7462C65.5942 25.2956 66.8629 20.5855 65.6153 13.7601C65.1703 12.0375 65.258 11.2104 63.1797 9.95985C61.7896 9.12337 59.7768 8.43861 57.7323 7.66006C54.6296 6.47848 51.3825 4.92807 49.4121 4.59297C45.2833 6.34556 41.1545 8.09814 37.0256 9.85072C38.3462 13.2831 40.0989 16.0594 42.1134 18.4382Z" fill="#EB882D"/>
<path fill-rule="evenodd" clip-rule="evenodd" d="M42.1134 47.7769C47.2838 50.1742 51.5931 51.88 55.3148 53.3805C56.4565 47.525 55.823 42.2225 54.4087 37.1631C57.6107 35.6218 60.8435 34.6928 64.1117 34.4689C65.5942 40.9195 66.8629 45.6296 65.6153 52.4549C65.1703 54.1775 65.258 55.0047 63.1797 56.2552C61.7896 57.0917 59.7768 57.7764 57.7323 58.555C54.6296 59.7366 51.3825 61.287 49.4121 61.6221C45.2833 59.8695 41.1545 58.1169 37.0257 56.3643C38.3462 52.9319 40.0989 50.1556 42.1134 47.7769Z" fill="#EB882D"/>
<path fill-rule="evenodd" clip-rule="evenodd" d="M29.9822 18.3757C24.8119 15.9784 20.5026 14.2726 16.7808 12.7721C15.6391 18.6276 16.2726 23.9301 17.687 28.9895C14.4849 30.5308 11.2521 31.4598 7.98394 31.6837C6.50142 25.2331 5.2327 20.523 6.4803 13.6977C6.92537 11.975 6.83765 11.1479 8.9159 9.89738C10.306 9.0609 12.3189 8.37614 14.3634 7.59759C17.466 6.41601 20.7131 4.8656 22.6835 4.5305C26.8123 6.28309 30.9412 8.03567 35.07 9.78825C33.7495 13.2207 31.9967 15.9969 29.9822 18.3757Z" fill="#EB882D"/>
<path fill-rule="evenodd" clip-rule="evenodd" d="M29.991 47.7769C24.8206 50.1742 20.5114 51.88 16.7896 53.3806C15.6479 47.525 16.2814 42.2225 17.6958 37.1631C14.4937 35.6218 11.2609 34.6928 7.99271 34.4689C6.51019 40.9195 5.24148 45.6296 6.48908 52.455C6.93415 54.1776 6.84642 55.0047 8.92467 56.2552C10.3148 57.0917 12.3276 57.7765 14.3721 58.555C17.4748 59.7366 20.7219 61.287 22.6923 61.6221C26.8211 59.8695 30.9499 58.117 35.0788 56.3644C33.7582 52.9319 32.0055 50.1557 29.991 47.7769Z" fill="#EB882D"/>
<circle cx="35.9714" cy="33.0372" r="10" fill="#EFAC47"/>
</svg>
