<svg width="28" height="28" viewBox="0 0 28 28" fill="none" xmlns="http://www.w3.org/2000/svg">
<path fill-rule="evenodd" clip-rule="evenodd" d="M13.2712 2.58897C13.6973 2.2481 14.3027 2.2481 14.7288 2.58897L23.4786 9.58877C23.4786 9.58884 23.4785 9.58871 23.4786 9.58877L26.3955 11.9223C26.8986 12.3248 26.9802 13.059 26.5777 13.5621C26.1752 14.0653 25.441 14.1468 24.9379 13.7443L23.9167 12.9274V24.5C23.9167 25.1443 23.3943 25.6666 22.75 25.6666H5.25C4.60567 25.6666 4.08334 25.1443 4.08334 24.5V12.9274L3.06215 13.7443C2.55901 14.1468 1.82483 14.0653 1.42232 13.5621C1.01981 13.059 1.10139 12.3248 1.60452 11.9223L4.52119 9.58897C4.52131 9.58887 4.52108 9.58906 4.52119 9.58897L13.2712 2.58897ZM6.41667 11.0607L14 4.99404L21.5833 11.0607V23.3333H18.0833V16.9166C18.0833 16.2723 17.561 15.75 16.9167 15.75H11.0833C10.439 15.75 9.91667 16.2723 9.91667 16.9166V23.3333H6.41667V11.0607ZM12.25 23.3333H15.75V18.0833H12.25V23.3333Z" fill="current"/>
</svg>
