<svg width="24" height="24" viewBox="0 0 24 24" fill="none" xmlns="http://www.w3.org/2000/svg">
<path d="M20.16 4.99992C19.0999 3.93713 17.6948 3.28846 16.1983 3.17109C14.7018 3.05372 13.2127 3.47539 12 4.35992C10.7276 3.41356 9.14396 2.98443 7.56789 3.15896C5.99182 3.33348 4.54041 4.0987 3.50594 5.30051C2.47148 6.50231 1.93079 8.05144 1.99277 9.63594C2.05475 11.2204 2.71479 12.7226 3.83997 13.8399L10.05 20.0599C10.57 20.5717 11.2704 20.8585 12 20.8585C12.7296 20.8585 13.43 20.5717 13.95 20.0599L20.16 13.8399C21.3275 12.6652 21.9829 11.0762 21.9829 9.41992C21.9829 7.76365 21.3275 6.17465 20.16 4.99992ZM18.75 12.4599L12.54 18.6699C12.4693 18.7413 12.3852 18.7979 12.2925 18.8366C12.1998 18.8752 12.1004 18.8951 12 18.8951C11.8995 18.8951 11.8001 18.8752 11.7074 18.8366C11.6147 18.7979 11.5306 18.7413 11.46 18.6699L5.24997 12.4299C4.46573 11.6283 4.02658 10.5514 4.02658 9.42992C4.02658 8.30846 4.46573 7.23158 5.24997 6.42992C6.04913 5.64091 7.12694 5.19849 8.24997 5.19849C9.373 5.19849 10.4508 5.64091 11.25 6.42992C11.3429 6.52365 11.4535 6.59804 11.5754 6.64881C11.6973 6.69958 11.828 6.72572 11.96 6.72572C12.092 6.72572 12.2227 6.69958 12.3445 6.64881C12.4664 6.59804 12.577 6.52365 12.67 6.42992C13.4691 5.64091 14.5469 5.19849 15.67 5.19849C16.793 5.19849 17.8708 5.64091 18.67 6.42992C19.465 7.22107 19.9186 8.29211 19.9335 9.41361C19.9485 10.5351 19.5236 11.6179 18.75 12.4299V12.4599Z" fill="#1D2130"/>
</svg>
