<svg width="96" height="30" viewBox="0 0 96 30" fill="none" xmlns="http://www.w3.org/2000/svg">
<path d="M39.7076 17.8372H36.313V15.3479H42.5031V23.2142C42.0372 23.43 41.2052 23.6457 40.0071 23.8615C38.809 24.0606 37.7191 24.1602 36.7373 24.1602C34.0916 24.1602 32.2528 23.5462 31.2212 22.3181C30.2061 21.09 29.6986 19.0238 29.6986 16.1196C29.6986 13.3481 30.2977 11.3151 31.4957 10.0206C32.7105 8.72615 34.624 8.07892 37.2365 8.07892C38.2183 8.07892 39.0919 8.10381 39.8573 8.1536C40.6394 8.18679 41.2384 8.24488 41.6544 8.32785V10.9417C41.0554 10.8919 40.3648 10.8504 39.5828 10.8172C38.8007 10.784 38.0186 10.7674 37.2365 10.7674C35.5226 10.7674 34.3495 11.1574 33.7172 11.9374C33.1015 12.7174 32.7937 14.1115 32.7937 16.1196C32.7937 17.0821 32.8436 17.8787 32.9434 18.5093C33.0599 19.14 33.2263 19.6545 33.4426 20.0528C33.7255 20.5506 34.1248 20.9074 34.6407 21.1232C35.1732 21.3389 35.9552 21.4468 36.9869 21.4468C37.3364 21.4468 37.744 21.4219 38.21 21.3721C38.6759 21.3223 39.1751 21.2559 39.7076 21.173V17.8372ZM47.7175 24.1602C46.4529 24.1602 45.521 23.8532 44.922 23.2391C44.3396 22.6085 44.0484 21.6293 44.0484 20.3017C44.0484 18.9408 44.3978 17.9783 45.0967 17.414C45.8122 16.8498 47.0353 16.5676 48.7658 16.5676C49.2484 16.5676 49.7392 16.5925 50.2384 16.6423C50.7376 16.6921 51.1703 16.7585 51.5364 16.8415V15.7959C51.5364 15.1487 51.3367 14.6757 50.9373 14.377C50.538 14.0783 49.9057 13.9289 49.0404 13.9289C48.2583 13.9289 47.5594 13.9538 46.9437 14.0036C46.3447 14.0534 45.7706 14.1364 45.2215 14.2525V11.8379C45.8538 11.6885 46.536 11.5806 47.2682 11.5142C48.017 11.4313 48.8989 11.3898 49.914 11.3898C51.4282 11.3898 52.5597 11.7383 53.3085 12.4353C54.0573 13.1157 54.4317 14.1447 54.4317 15.5221V23.9362H51.761L51.6362 22.8408H51.5863C51.0538 23.2391 50.4381 23.5628 49.7393 23.8117C49.057 24.044 48.3831 24.1602 47.7175 24.1602ZM49.1152 18.6338C48.2167 18.6338 47.601 18.7417 47.2682 18.9574C46.9354 19.1566 46.769 19.5466 46.769 20.1274C46.769 20.6917 46.9021 21.0983 47.1684 21.3472C47.4513 21.5796 47.9255 21.6957 48.5911 21.6957C49.0737 21.6957 49.5812 21.6293 50.1136 21.4966C50.6628 21.3472 51.137 21.1647 51.5364 20.9489V18.833C51.137 18.7666 50.7377 18.7168 50.3383 18.6836C49.9556 18.6504 49.5479 18.6338 49.1152 18.6338ZM61.1508 24.1602C59.7696 24.1602 58.738 23.82 58.0557 23.1396C57.3735 22.4425 57.0324 21.4053 57.0324 20.0279V11.6387H59.9277V19.6545C59.9277 20.2851 60.0941 20.7415 60.4269 21.0236C60.7597 21.3057 61.3005 21.4468 62.0493 21.4468C62.5153 21.4468 62.9895 21.397 63.4721 21.2974C63.9546 21.1979 64.4039 21.0651 64.8199 20.8991V11.6387H67.7153V23.9362H65.0445L64.9447 23.0898H64.8698C64.1876 23.4383 63.5303 23.7038 62.898 23.8864C62.2823 24.0689 61.6999 24.1602 61.1508 24.1602ZM73.3601 7.3819V23.9362H70.4647V7.3819H73.3601ZM85.8055 20.924V23.264C85.3895 23.513 84.7322 23.7287 83.8337 23.9113C82.9517 24.0772 82.0282 24.1602 81.0631 24.1602C79.0996 24.1602 77.6852 23.6623 76.8199 22.6666C75.9713 21.6708 75.5469 20.0279 75.5469 17.7376C75.5469 15.5304 75.9962 13.9206 76.8948 12.9083C77.7933 11.8959 79.2161 11.3898 81.1629 11.3898C83.0433 11.3898 84.3745 11.7798 85.1565 12.5598C85.9386 13.3398 86.3297 14.6757 86.3297 16.5676C86.3297 16.9162 86.3213 17.2398 86.3047 17.5385C86.2881 17.8206 86.2548 18.2189 86.2049 18.7334H78.4673C78.4839 19.7623 78.7085 20.4842 79.1412 20.8991C79.5905 21.314 80.3809 21.5215 81.5124 21.5215C82.2612 21.5215 83.0349 21.4634 83.8337 21.3472C84.6324 21.231 85.2897 21.09 85.8055 20.924ZM81.1629 13.904C80.1479 13.904 79.4407 14.1032 79.0413 14.5015C78.6586 14.8998 78.4673 15.6217 78.4673 16.6672H83.6839V16.1445C83.6673 15.2981 83.4759 14.7172 83.1098 14.4019C82.7437 14.07 82.0948 13.904 81.1629 13.904ZM91.4218 23.9362H88.5265V11.6387H91.1972L91.322 12.6345H91.3969C92.0125 12.2693 92.6365 11.9872 93.2689 11.7881C93.9012 11.5889 94.5169 11.4893 95.1159 11.4893C95.2823 11.4893 95.3905 11.4893 95.4404 11.4893C95.5069 11.4893 95.5569 11.4976 95.5901 11.5142V14.3023C95.4903 14.2691 95.3572 14.2525 95.1908 14.2525C95.041 14.2359 94.7748 14.2276 94.3921 14.2276C93.8097 14.2276 93.2689 14.2774 92.7697 14.377C92.2705 14.4766 91.8212 14.6176 91.4218 14.8002V23.9362Z" fill="current"/>
<path fill-rule="evenodd" clip-rule="evenodd" d="M13.4854 11.2982C15.1399 10.533 16.5189 9.98867 17.7098 9.50975C18.0752 11.3786 17.8725 13.0708 17.4199 14.6855C18.4445 15.1775 19.479 15.4739 20.5248 15.5454C20.9992 13.4867 21.4052 11.9834 21.006 9.80516C20.8636 9.25539 20.8917 8.99142 20.2266 8.5923C19.7818 8.32533 19.1377 8.10681 18.4834 7.85832C17.4906 7.48121 16.4515 6.9864 15.821 6.87946C14.4998 7.4388 13.1785 7.99814 11.8573 8.55748C12.2799 9.65292 12.8408 10.539 13.4854 11.2982Z" fill="#EB882D"/>
<path fill-rule="evenodd" clip-rule="evenodd" d="M13.4854 20.6616C15.1399 21.4267 16.5189 21.9711 17.7098 22.45C18.0752 20.5812 17.8725 18.889 17.4199 17.2743C18.4445 16.7823 19.479 16.4859 20.5248 16.4144C20.9992 18.4731 21.4052 19.9763 21.006 22.1546C20.8636 22.7044 20.8917 22.9683 20.2266 23.3675C19.7818 23.6344 19.1377 23.853 18.4834 24.1015C17.4906 24.4785 16.4515 24.9734 15.821 25.0803C14.4998 24.521 13.1785 23.9616 11.8573 23.4023C12.2799 22.3068 12.8408 21.4208 13.4854 20.6616Z" fill="#EB882D"/>
<path fill-rule="evenodd" clip-rule="evenodd" d="M9.60346 11.2782C7.94893 10.5131 6.56996 9.96874 5.37901 9.48982C5.01367 11.3586 5.21639 13.0509 5.66897 14.6656C4.64433 15.1575 3.60983 15.454 2.56401 15.5255C2.0896 13.4668 1.68361 11.9635 2.08284 9.78523C2.22527 9.23546 2.19719 8.97149 2.86223 8.57237C3.30708 8.30543 3.95117 8.08688 4.60541 7.83842C5.59828 7.46131 6.63735 6.9665 7.26788 6.85956C8.58909 7.4189 9.91031 7.97821 11.2316 8.53755C10.809 9.63299 10.2481 10.519 9.60346 11.2782Z" fill="#EB882D"/>
<path fill-rule="evenodd" clip-rule="evenodd" d="M9.60628 20.6616C7.95175 21.4267 6.57277 21.9711 5.38183 22.45C5.01645 20.5812 5.21917 18.8889 5.67178 17.2742C4.64714 16.7823 3.61264 16.4858 2.56681 16.4144C2.09241 18.4731 1.68642 19.9763 2.08565 22.1546C2.22807 22.7043 2.2 22.9683 2.86504 23.3674C3.30989 23.6344 3.95399 23.8529 4.60823 24.1014C5.60106 24.4785 6.64013 24.9733 7.27066 25.0803C8.59191 24.5209 9.91313 23.9616 11.2343 23.4023C10.8118 22.3068 10.2509 21.4208 9.60628 20.6616Z" fill="#EB882D"/>
<path d="M11.5199 19.1489C13.2873 19.1489 14.7199 17.72 14.7199 15.9574C14.7199 14.1948 13.2873 12.7659 11.5199 12.7659C9.75264 12.7659 8.31995 14.1948 8.31995 15.9574C8.31995 17.72 9.75264 19.1489 11.5199 19.1489Z" fill="#F09815"/>
</svg>
