<svg width="135" height="26" viewBox="0 0 135 26" fill="none" xmlns="http://www.w3.org/2000/svg">
<path fill-rule="evenodd" clip-rule="evenodd" d="M15.4193 6.81606C17.6253 5.79589 19.464 5.07006 21.0519 4.4315C21.5391 6.92325 21.2688 9.17959 20.6653 11.3325C22.0315 11.9884 23.4108 12.3837 24.8053 12.479C25.4378 9.73405 25.9791 7.72976 25.4468 4.82537C25.2569 4.09235 25.2944 3.7404 24.4076 3.20823C23.8145 2.85227 22.9557 2.56091 22.0833 2.22959C20.7596 1.72678 19.3741 1.06703 18.5334 0.924438C16.7718 1.67023 15.0102 2.41601 13.2485 3.1618C13.8119 4.6224 14.5598 5.8038 15.4193 6.81606Z" fill="#EB882D"/>
<path fill-rule="evenodd" clip-rule="evenodd" d="M15.4193 19.3003C17.6253 20.3205 19.464 21.0463 21.0519 21.6849C21.5391 19.1931 21.2688 16.9368 20.6653 14.7838C22.0315 14.1279 23.4108 13.7326 24.8053 13.6373C25.4378 16.3823 25.9791 18.3866 25.4468 21.291C25.2569 22.024 25.2944 22.376 24.4076 22.9081C23.8145 23.2641 22.9557 23.5555 22.0833 23.8868C20.7596 24.3895 19.3741 25.0493 18.5334 25.1919C16.7718 24.4461 15.0102 23.7004 13.2485 22.9546C13.8119 21.494 14.5598 20.3126 15.4193 19.3003Z" fill="#EB882D"/>
<path fill-rule="evenodd" clip-rule="evenodd" d="M10.2437 6.78916C8.0377 5.76903 6.19907 5.04316 4.61115 4.4046C4.12402 6.89635 4.39431 9.15273 4.99775 11.3057C3.63156 11.9615 2.25223 12.3569 0.857801 12.4521C0.225259 9.7072 -0.316061 7.7029 0.216252 4.79848C0.406149 4.06546 0.368717 3.7135 1.25544 3.18133C1.84856 2.82541 2.70736 2.53401 3.57968 2.20273C4.9035 1.69992 6.28893 1.04018 7.12963 0.897583C8.89125 1.64337 10.6529 2.38911 12.4145 3.1349C11.8511 4.5955 11.1033 5.7769 10.2437 6.78916Z" fill="#EB882D"/>
<path fill-rule="evenodd" clip-rule="evenodd" d="M10.2472 19.3003C8.04113 20.3204 6.2025 21.0463 4.61457 21.6848C4.1274 19.1931 4.3977 16.9367 5.00118 14.7838C3.63499 14.1279 2.25566 13.7326 0.861221 13.6373C0.228679 16.3823 -0.312642 18.3866 0.219668 21.2909C0.409568 22.024 0.372137 22.376 1.25886 22.9081C1.85199 23.2641 2.71079 23.5554 3.58311 23.8867C4.90688 24.3895 6.29231 25.0493 7.13302 25.1919C8.89468 24.4461 10.6563 23.7003 12.4179 22.9545C11.8545 21.4939 11.1066 20.3125 10.2472 19.3003Z" fill="#EB882D"/>
<path d="M12.7989 17.2837C15.1553 17.2837 17.0656 15.3785 17.0656 13.0284C17.0656 10.6782 15.1553 8.77307 12.7989 8.77307C10.4425 8.77307 8.53223 10.6782 8.53223 13.0284C8.53223 15.3785 10.4425 17.2837 12.7989 17.2837Z" fill="#F09815"/>
<path d="M40.2231 18.5448H37.6151L41.3271 8.5128H43.9031L47.5191 18.5448H44.9271L44.3991 16.8648H40.7511L40.2231 18.5448ZM42.5591 10.9768C42.4738 11.2755 42.3778 11.5955 42.2711 11.9368C42.1751 12.2675 42.0098 12.8115 41.7751 13.5688L41.3591 14.8968H43.7751L43.3591 13.5688C43.2204 13.1635 43.0818 12.7368 42.9431 12.2888C42.8044 11.8301 42.6764 11.3928 42.5591 10.9768ZM52.9186 7.9048H55.3186V18.5448H53.1906L53.0626 17.8088H53.0146C52.7266 18.1075 52.3853 18.3315 51.9906 18.4808C51.5959 18.6301 51.1479 18.7048 50.6466 18.7048C49.6013 18.7048 48.8546 18.3901 48.4066 17.7608C47.9693 17.1315 47.7506 16.0755 47.7506 14.5928C47.7506 13.1528 48.0279 12.1075 48.5826 11.4568C49.1479 10.8061 50.0599 10.4808 51.3186 10.4808C51.6279 10.4808 51.9159 10.5021 52.1826 10.5448C52.4599 10.5768 52.7053 10.6248 52.9186 10.6888V7.9048ZM51.6546 12.6408C51.0146 12.6408 50.6039 12.7635 50.4226 13.0088C50.2413 13.2435 50.1506 13.7715 50.1506 14.5928C50.1506 15.3715 50.2306 15.8835 50.3906 16.1288C50.5506 16.3635 50.9239 16.4808 51.5106 16.4808C51.7879 16.4808 52.0439 16.4595 52.2786 16.4168C52.5239 16.3741 52.7373 16.3101 52.9186 16.2248V12.8488C52.7586 12.7741 52.5719 12.7208 52.3586 12.6888C52.1559 12.6568 51.9213 12.6408 51.6546 12.6408ZM59.0948 18.5448H56.6948V10.6408H58.9348L59.0148 11.2328H59.0628C59.4575 10.9875 59.8362 10.8008 60.1988 10.6728C60.5615 10.5448 60.9082 10.4808 61.2388 10.4808C61.6762 10.4808 62.0495 10.5501 62.3588 10.6888C62.6682 10.8168 62.9135 11.0141 63.0948 11.2808H63.1588C63.5215 11.0355 63.9268 10.8435 64.3748 10.7048C64.8335 10.5555 65.2708 10.4808 65.6868 10.4808C66.4655 10.4808 67.0415 10.6941 67.4148 11.1208C67.7988 11.5475 67.9908 12.1981 67.9908 13.0728V18.5448H65.5908V13.3928C65.5908 13.1261 65.5162 12.9341 65.3668 12.8168C65.2175 12.6995 64.9828 12.6408 64.6628 12.6408C64.4922 12.6408 64.3108 12.6568 64.1188 12.6888C63.9268 12.7208 63.7348 12.7688 63.5428 12.8328V18.5448H61.1428V13.3928C61.1428 13.1261 61.0682 12.9341 60.9188 12.8168C60.7695 12.6995 60.5348 12.6408 60.2148 12.6408C60.0442 12.6408 59.8628 12.6568 59.6708 12.6888C59.4788 12.7208 59.2868 12.7688 59.0948 12.8328V18.5448ZM71.7995 9.7768H69.2715V7.9048H71.7995V9.7768ZM71.7355 18.5448H69.3355V10.6408H71.7355V18.5448ZM75.5167 18.5448H73.1167V10.6408H75.1967L75.2927 11.4728H75.3407C75.682 11.1208 76.05 10.8701 76.4447 10.7208C76.85 10.5608 77.3354 10.4808 77.9007 10.4808C78.7967 10.4808 79.474 10.6995 79.9327 11.1368C80.3914 11.5741 80.6207 12.2195 80.6207 13.0728V18.5448H78.2207V13.3928C78.2207 13.1475 78.1194 12.9608 77.9167 12.8328C77.7247 12.7048 77.4367 12.6408 77.0527 12.6408C76.7647 12.6408 76.4874 12.6728 76.2207 12.7368C75.954 12.8008 75.7194 12.8915 75.5167 13.0088V18.5448ZM84.4245 9.7768H81.8965V7.9048H84.4245V9.7768ZM84.3605 18.5448H81.9605V10.6408H84.3605V18.5448ZM88.9577 12.5128C88.5097 12.5128 88.2057 12.5501 88.0457 12.6248C87.8964 12.6888 87.8217 12.8435 87.8217 13.0888C87.8217 13.1848 87.8484 13.2648 87.9017 13.3288C87.9657 13.3821 88.051 13.4141 88.1577 13.4248L90.0617 13.6808C90.6804 13.7661 91.1124 13.9688 91.3577 14.2888C91.6137 14.5981 91.7417 15.0941 91.7417 15.7768C91.7417 16.8008 91.5124 17.5475 91.0537 18.0168C90.595 18.4755 89.795 18.7048 88.6537 18.7048C88.0244 18.7048 87.4537 18.6781 86.9417 18.6248C86.4404 18.5821 86.0137 18.5181 85.6617 18.4328V16.3528C85.9284 16.4168 86.2964 16.4755 86.7657 16.5288C87.2457 16.5715 87.731 16.5928 88.2217 16.5928C88.659 16.5928 88.9524 16.5501 89.1017 16.4648C89.2617 16.3688 89.3417 16.1928 89.3417 15.9368C89.3417 15.8515 89.315 15.7821 89.2617 15.7288C89.2084 15.6648 89.139 15.6275 89.0537 15.6168L87.0857 15.3608C86.5097 15.2861 86.0884 15.0781 85.8217 14.7368C85.5657 14.3848 85.4377 13.8675 85.4377 13.1848C85.4377 12.2888 85.7204 11.6168 86.2857 11.1688C86.851 10.7101 87.6884 10.4808 88.7977 10.4808C89.235 10.4808 89.6404 10.4915 90.0137 10.5128C90.387 10.5341 90.7817 10.5768 91.1977 10.6408V12.6408C90.931 12.5981 90.6004 12.5661 90.2057 12.5448C89.811 12.5235 89.395 12.5128 88.9577 12.5128ZM93.16 12.6408H92.232V10.6408H93.24L93.544 8.8008H95.56V10.6408H97.8V12.6408H95.56V15.7128C95.56 16.0115 95.6346 16.2141 95.784 16.3208C95.944 16.4168 96.2533 16.4648 96.712 16.4648C96.872 16.4648 97.0693 16.4541 97.304 16.4328C97.5386 16.4008 97.736 16.3688 97.896 16.3368V18.3848C97.7253 18.4595 97.4586 18.5288 97.096 18.5928C96.744 18.6675 96.4293 18.7048 96.152 18.7048C95.0853 18.7048 94.3173 18.4808 93.848 18.0328C93.3893 17.5741 93.16 16.8328 93.16 15.8088V12.6408ZM101.142 18.5448H98.7417V10.6408H100.982L101.062 11.2488H101.094C101.478 11.0141 101.867 10.8381 102.262 10.7208C102.667 10.5928 103.046 10.5288 103.398 10.5288H103.526V12.8488C103.43 12.8275 103.323 12.8168 103.206 12.8168C103.099 12.8061 102.96 12.8008 102.79 12.8008C102.48 12.8008 102.187 12.8221 101.91 12.8648C101.632 12.8968 101.376 12.9501 101.142 13.0248V18.5448ZM106.099 18.7048C105.289 18.7048 104.691 18.5021 104.307 18.0968C103.934 17.6915 103.747 17.0515 103.747 16.1768C103.747 15.2808 103.971 14.6515 104.419 14.2888C104.878 13.9261 105.662 13.7448 106.771 13.7448C107.027 13.7448 107.289 13.7608 107.555 13.7928C107.833 13.8141 108.073 13.8461 108.275 13.8888V13.3128C108.275 13.0568 108.163 12.8701 107.939 12.7528C107.726 12.6248 107.395 12.5608 106.947 12.5608C106.435 12.5608 105.977 12.5768 105.571 12.6088C105.177 12.6301 104.814 12.6728 104.483 12.7368V10.7688C104.878 10.6728 105.337 10.6035 105.859 10.5608C106.382 10.5075 106.99 10.4808 107.683 10.4808C108.665 10.4808 109.406 10.6995 109.907 11.1368C110.419 11.5741 110.675 12.2195 110.675 13.0728V18.5448H108.435L108.355 17.8728H108.307C107.977 18.1288 107.614 18.3315 107.219 18.4808C106.825 18.6301 106.451 18.7048 106.099 18.7048ZM107.091 15.3288C106.665 15.3288 106.377 15.3768 106.227 15.4728C106.078 15.5581 106.003 15.7448 106.003 16.0328C106.003 16.2995 106.062 16.4861 106.179 16.5928C106.307 16.6888 106.526 16.7368 106.835 16.7368C107.07 16.7368 107.315 16.7048 107.571 16.6408C107.827 16.5768 108.062 16.4968 108.275 16.4008V15.4248C108.147 15.3928 107.987 15.3715 107.795 15.3608C107.603 15.3395 107.369 15.3288 107.091 15.3288ZM116.903 7.9048H119.303V18.5448H117.175L117.047 17.8088H116.999C116.711 18.1075 116.37 18.3315 115.975 18.4808C115.58 18.6301 115.132 18.7048 114.631 18.7048C113.586 18.7048 112.839 18.3901 112.391 17.7608C111.954 17.1315 111.735 16.0755 111.735 14.5928C111.735 13.1528 112.012 12.1075 112.567 11.4568C113.132 10.8061 114.044 10.4808 115.303 10.4808C115.612 10.4808 115.9 10.5021 116.167 10.5448C116.444 10.5768 116.69 10.6248 116.903 10.6888V7.9048ZM115.639 12.6408C114.999 12.6408 114.588 12.7635 114.407 13.0088C114.226 13.2435 114.135 13.7715 114.135 14.5928C114.135 15.3715 114.215 15.8835 114.375 16.1288C114.535 16.3635 114.908 16.4808 115.495 16.4808C115.772 16.4808 116.028 16.4595 116.263 16.4168C116.508 16.3741 116.722 16.3101 116.903 16.2248V12.8488C116.743 12.7741 116.556 12.7208 116.343 12.6888C116.14 12.6568 115.906 12.6408 115.639 12.6408ZM128.199 14.5928C128.199 16.0755 127.901 17.1315 127.303 17.7608C126.706 18.3901 125.703 18.7048 124.295 18.7048C122.887 18.7048 121.885 18.3901 121.287 17.7608C120.69 17.1315 120.391 16.0755 120.391 14.5928C120.391 13.1101 120.69 12.0541 121.287 11.4248C121.885 10.7955 122.887 10.4808 124.295 10.4808C125.703 10.4808 126.706 10.7955 127.303 11.4248C127.901 12.0541 128.199 13.1101 128.199 14.5928ZM122.791 14.5608C122.791 15.3715 122.877 15.8941 123.047 16.1288C123.229 16.3635 123.645 16.4808 124.295 16.4808C124.946 16.4808 125.357 16.3635 125.527 16.1288C125.709 15.8941 125.799 15.3715 125.799 14.5608C125.799 13.7501 125.709 13.2275 125.527 12.9928C125.357 12.7581 124.946 12.6408 124.295 12.6408C123.645 12.6408 123.229 12.7581 123.047 12.9928C122.877 13.2275 122.791 13.7501 122.791 14.5608ZM131.689 18.5448H129.289V10.6408H131.529L131.609 11.2488H131.641C132.025 11.0141 132.414 10.8381 132.809 10.7208C133.214 10.5928 133.593 10.5288 133.945 10.5288H134.073V12.8488C133.977 12.8275 133.87 12.8168 133.753 12.8168C133.646 12.8061 133.507 12.8008 133.337 12.8008C133.027 12.8008 132.734 12.8221 132.457 12.8648C132.179 12.8968 131.923 12.9501 131.689 13.0248V18.5448Z" fill="#1D2130"/>
</svg>
