<svg width="335" height="116" viewBox="0 0 335 116" fill="none" xmlns="http://www.w3.org/2000/svg">
<path d="M134.086 55.89H123.478V48.09H142.822V72.738C141.366 73.414 138.766 74.09 135.022 74.766C131.278 75.39 127.872 75.702 124.804 75.702C116.536 75.702 110.79 73.778 107.566 69.93C104.394 66.082 102.808 59.608 102.808 50.508C102.808 41.824 104.68 35.454 108.424 31.398C112.22 27.342 118.2 25.314 126.364 25.314C129.432 25.314 132.162 25.392 134.554 25.548C136.998 25.652 138.87 25.834 140.17 26.094V34.284C138.298 34.128 136.14 33.998 133.696 33.894C131.252 33.79 128.808 33.738 126.364 33.738C121.008 33.738 117.342 34.96 115.366 37.404C113.442 39.848 112.48 44.216 112.48 50.508C112.48 53.524 112.636 56.02 112.948 57.996C113.312 59.972 113.832 61.584 114.508 62.832C115.392 64.392 116.64 65.51 118.252 66.186C119.916 66.862 122.36 67.2 125.584 67.2C126.676 67.2 127.95 67.122 129.406 66.966C130.862 66.81 132.422 66.602 134.086 66.342V55.89ZM159.117 75.702C155.165 75.702 152.253 74.74 150.381 72.816C148.561 70.84 147.651 67.772 147.651 63.612C147.651 59.348 148.743 56.332 150.927 54.564C153.163 52.796 156.985 51.912 162.393 51.912C163.901 51.912 165.435 51.99 166.995 52.146C168.555 52.302 169.907 52.51 171.051 52.77V49.494C171.051 47.466 170.427 45.984 169.179 45.048C167.931 44.112 165.955 43.644 163.251 43.644C160.807 43.644 158.623 43.722 156.699 43.878C154.827 44.034 153.033 44.294 151.317 44.658V37.092C153.293 36.624 155.425 36.286 157.713 36.078C160.053 35.818 162.809 35.688 165.981 35.688C170.713 35.688 174.249 36.78 176.589 38.964C178.929 41.096 180.099 44.32 180.099 48.636V75H171.753L171.363 71.568H171.207C169.543 72.816 167.619 73.83 165.435 74.61C163.303 75.338 161.197 75.702 159.117 75.702ZM163.485 58.386C160.677 58.386 158.753 58.724 157.713 59.4C156.673 60.024 156.153 61.246 156.153 63.066C156.153 64.834 156.569 66.108 157.401 66.888C158.285 67.616 159.767 67.98 161.847 67.98C163.355 67.98 164.941 67.772 166.605 67.356C168.321 66.888 169.803 66.316 171.051 65.64V59.01C169.803 58.802 168.555 58.646 167.307 58.542C166.111 58.438 164.837 58.386 163.485 58.386ZM201.096 75.702C196.78 75.702 193.556 74.636 191.424 72.504C189.292 70.32 188.226 67.07 188.226 62.754V36.468H197.274V61.584C197.274 63.56 197.794 64.99 198.834 65.874C199.874 66.758 201.564 67.2 203.904 67.2C205.36 67.2 206.842 67.044 208.35 66.732C209.858 66.42 211.262 66.004 212.562 65.484V36.468H221.61V75H213.264L212.952 72.348H212.718C210.586 73.44 208.532 74.272 206.556 74.844C204.632 75.416 202.812 75.702 201.096 75.702ZM239.25 23.13V75H230.202V23.13H239.25ZM278.142 65.562V72.894C276.842 73.674 274.788 74.35 271.98 74.922C269.224 75.442 266.338 75.702 263.322 75.702C257.186 75.702 252.766 74.142 250.062 71.022C247.41 67.902 246.084 62.754 246.084 55.578C246.084 48.662 247.488 43.618 250.296 40.446C253.104 37.274 257.55 35.688 263.634 35.688C269.51 35.688 273.67 36.91 276.114 39.354C278.558 41.798 279.78 45.984 279.78 51.912C279.78 53.004 279.754 54.018 279.702 54.954C279.65 55.838 279.546 57.086 279.39 58.698H255.21C255.262 61.922 255.964 64.184 257.316 65.484C258.72 66.784 261.19 67.434 264.726 67.434C267.066 67.434 269.484 67.252 271.98 66.888C274.476 66.524 276.53 66.082 278.142 65.562ZM263.634 43.566C260.462 43.566 258.252 44.19 257.004 45.438C255.808 46.686 255.21 48.948 255.21 52.224H271.512V50.586C271.46 47.934 270.862 46.114 269.718 45.126C268.574 44.086 266.546 43.566 263.634 43.566ZM295.693 75H286.645V36.468H294.991L295.381 39.588H295.615C297.539 38.444 299.489 37.56 301.465 36.936C303.441 36.312 305.365 36 307.237 36C307.757 36 308.095 36 308.251 36C308.459 36 308.615 36.026 308.719 36.078V44.814C308.407 44.71 307.991 44.658 307.471 44.658C307.003 44.606 306.171 44.58 304.975 44.58C303.155 44.58 301.465 44.736 299.905 45.048C298.345 45.36 296.941 45.802 295.693 46.374V75Z" fill="current"/>
<path fill-rule="evenodd" clip-rule="evenodd" d="M52.142 35.401C57.3123 33.0036 61.6216 31.2979 65.3434 29.7973C66.4851 35.6529 65.8516 40.9553 64.4372 46.0147C67.6393 47.5561 70.8721 48.485 74.1403 48.709C75.6228 42.2583 76.8915 37.5482 75.6439 30.7229C75.1988 29.0003 75.2866 28.1732 73.2083 26.9226C71.8182 26.0861 69.8054 25.4014 67.7608 24.6228C64.6582 23.4412 61.4111 21.8908 59.4407 21.5557C55.3119 23.3083 51.183 25.0609 47.0542 26.8135C48.3747 30.2459 50.1275 33.0222 52.142 35.401Z" fill="#EB882D"/>
<path fill-rule="evenodd" clip-rule="evenodd" d="M52.142 64.7396C57.3123 67.137 61.6216 68.8427 65.3434 70.3433C66.4851 64.4877 65.8516 59.1853 64.4372 54.1259C67.6393 52.5845 70.8721 51.6556 74.1403 51.4316C75.6228 57.8823 76.8915 62.5924 75.6439 69.4177C75.1988 71.1403 75.2866 71.9674 73.2083 73.218C71.8182 74.0545 69.8054 74.7392 67.7608 75.5178C64.6582 76.6993 61.4111 78.2498 59.4407 78.5849C55.3119 76.8323 51.183 75.0797 47.0542 73.3271C48.3747 69.8947 50.1275 67.1184 52.142 64.7396Z" fill="#EB882D"/>
<path fill-rule="evenodd" clip-rule="evenodd" d="M40.0108 35.3385C34.8404 32.9412 30.5311 31.2354 26.8094 29.7348C25.6677 35.5904 26.3012 40.8929 27.7155 45.9523C24.5135 47.4936 21.2807 48.4226 18.0125 48.6465C16.53 42.1959 15.2613 37.4858 16.5089 30.6604C16.9539 28.9378 16.8662 28.1107 18.9445 26.8601C20.3346 26.0237 22.3474 25.3389 24.3919 24.5604C27.4946 23.3788 30.7417 21.8284 32.7121 21.4933C36.8409 23.2459 40.9697 24.9984 45.0986 26.751C43.778 30.1834 42.0253 32.9597 40.0108 35.3385Z" fill="#EB882D"/>
<path fill-rule="evenodd" clip-rule="evenodd" d="M40.0196 64.7397C34.8492 67.137 30.5399 68.8428 26.8182 70.3433C25.6764 64.4878 26.3099 59.1853 27.7243 54.1259C24.5223 52.5846 21.2895 51.6556 18.0213 51.4317C16.5388 57.8823 15.27 62.5924 16.5176 69.4177C16.9627 71.1403 16.875 71.9675 18.9532 73.218C20.3434 74.0545 22.3562 74.7392 24.4007 75.5178C27.5033 76.6994 30.7504 78.2498 32.7208 78.5849C36.8497 76.8323 40.9785 75.0797 45.1073 73.3271C43.7868 69.8947 42.034 67.1184 40.0196 64.7397Z" fill="#EB882D"/>
<circle cx="46" cy="50" r="10" fill="#EFAC47"/>
<path d="M10.962 109.848V111H2.052V98.4H10.692V99.552H3.384V104.034H9.9V105.168H3.384V109.848H10.962ZM14.093 98.4H19.223C20.555 98.4 21.731 98.67 22.751 99.21C23.771 99.738 24.563 100.482 25.127 101.442C25.691 102.39 25.973 103.476 25.973 104.7C25.973 105.924 25.691 107.016 25.127 107.976C24.563 108.924 23.771 109.668 22.751 110.208C21.731 110.736 20.555 111 19.223 111H14.093V98.4ZM19.151 109.848C20.255 109.848 21.221 109.632 22.049 109.2C22.877 108.756 23.519 108.15 23.975 107.382C24.431 106.602 24.659 105.708 24.659 104.7C24.659 103.692 24.431 102.804 23.975 102.036C23.519 101.256 22.877 100.65 22.049 100.218C21.221 99.774 20.255 99.552 19.151 99.552H15.425V109.848H19.151ZM34.0401 111.108C32.4081 111.108 31.1361 110.64 30.2241 109.704C29.3121 108.768 28.8561 107.406 28.8561 105.618V98.4H30.1881V105.564C30.1881 107.028 30.5181 108.12 31.1781 108.84C31.8381 109.56 32.7921 109.92 34.0401 109.92C35.3001 109.92 36.2601 109.56 36.9201 108.84C37.5801 108.12 37.9101 107.028 37.9101 105.564V98.4H39.2061V105.618C39.2061 107.406 38.7501 108.768 37.8381 109.704C36.9381 110.64 35.6721 111.108 34.0401 111.108ZM48.692 111.108C47.444 111.108 46.316 110.832 45.308 110.28C44.312 109.728 43.526 108.966 42.95 107.994C42.386 107.01 42.104 105.912 42.104 104.7C42.104 103.488 42.386 102.396 42.95 101.424C43.526 100.44 44.318 99.672 45.326 99.12C46.334 98.568 47.462 98.292 48.71 98.292C49.646 98.292 50.51 98.448 51.302 98.76C52.094 99.072 52.766 99.528 53.318 100.128L52.472 100.974C51.488 99.978 50.246 99.48 48.746 99.48C47.75 99.48 46.844 99.708 46.028 100.164C45.212 100.62 44.57 101.244 44.102 102.036C43.646 102.828 43.418 103.716 43.418 104.7C43.418 105.684 43.646 106.572 44.102 107.364C44.57 108.156 45.212 108.78 46.028 109.236C46.844 109.692 47.75 109.92 48.746 109.92C50.258 109.92 51.5 109.416 52.472 108.408L53.318 109.254C52.766 109.854 52.088 110.316 51.284 110.64C50.492 110.952 49.628 111.108 48.692 111.108ZM63.7431 107.634H56.7231L55.2111 111H53.8251L59.5851 98.4H60.8991L66.6591 111H65.2551L63.7431 107.634ZM63.2571 106.554L60.2331 99.786L57.2091 106.554H63.2571ZM74.0396 111.108C72.7916 111.108 71.6636 110.832 70.6556 110.28C69.6596 109.728 68.8736 108.966 68.2976 107.994C67.7336 107.01 67.4516 105.912 67.4516 104.7C67.4516 103.488 67.7336 102.396 68.2976 101.424C68.8736 100.44 69.6656 99.672 70.6736 99.12C71.6816 98.568 72.8096 98.292 74.0576 98.292C74.9936 98.292 75.8576 98.448 76.6496 98.76C77.4416 99.072 78.1136 99.528 78.6656 100.128L77.8196 100.974C76.8356 99.978 75.5936 99.48 74.0936 99.48C73.0976 99.48 72.1916 99.708 71.3756 100.164C70.5596 100.62 69.9176 101.244 69.4496 102.036C68.9936 102.828 68.7656 103.716 68.7656 104.7C68.7656 105.684 68.9936 106.572 69.4496 107.364C69.9176 108.156 70.5596 108.78 71.3756 109.236C72.1916 109.692 73.0976 109.92 74.0936 109.92C75.6056 109.92 76.8476 109.416 77.8196 108.408L78.6656 109.254C78.1136 109.854 77.4356 110.316 76.6316 110.64C75.8396 110.952 74.9756 111.108 74.0396 111.108ZM81.5051 98.4H82.8371V111H81.5051V98.4ZM92.4448 111.108C91.1968 111.108 90.0628 110.832 89.0428 110.28C88.0348 109.716 87.2428 108.948 86.6668 107.976C86.1028 107.004 85.8208 105.912 85.8208 104.7C85.8208 103.488 86.1028 102.396 86.6668 101.424C87.2428 100.452 88.0348 99.69 89.0428 99.138C90.0628 98.574 91.1968 98.292 92.4448 98.292C93.6928 98.292 94.8148 98.568 95.8108 99.12C96.8188 99.672 97.6108 100.44 98.1868 101.424C98.7628 102.396 99.0508 103.488 99.0508 104.7C99.0508 105.912 98.7628 107.01 98.1868 107.994C97.6108 108.966 96.8188 109.728 95.8108 110.28C94.8148 110.832 93.6928 111.108 92.4448 111.108ZM92.4448 109.92C93.4408 109.92 94.3408 109.698 95.1448 109.254C95.9488 108.798 96.5788 108.174 97.0348 107.382C97.4908 106.578 97.7188 105.684 97.7188 104.7C97.7188 103.716 97.4908 102.828 97.0348 102.036C96.5788 101.232 95.9488 100.608 95.1448 100.164C94.3408 99.708 93.4408 99.48 92.4448 99.48C91.4488 99.48 90.5428 99.708 89.7268 100.164C88.9228 100.608 88.2868 101.232 87.8188 102.036C87.3628 102.828 87.1348 103.716 87.1348 104.7C87.1348 105.684 87.3628 106.578 87.8188 107.382C88.2868 108.174 88.9228 108.798 89.7268 109.254C90.5428 109.698 91.4488 109.92 92.4448 109.92ZM93.7408 95.142H95.4508L92.5348 97.374H91.2748L93.7408 95.142ZM112.566 98.4V111H111.468L103.368 100.776V111H102.036V98.4H103.134L111.252 108.624V98.4H112.566ZM130.3 109.848V111H121.39V98.4H130.03V99.552H122.722V104.034H129.238V105.168H122.722V109.848H130.3ZM134.763 99.552V104.502H141.279V105.654H134.763V111H133.431V98.4H142.071V99.552H134.763ZM153.732 109.848V111H144.822V98.4H153.462V99.552H146.154V104.034H152.67V105.168H146.154V109.848H153.732ZM162.264 111.108C161.016 111.108 159.888 110.832 158.88 110.28C157.884 109.728 157.098 108.966 156.522 107.994C155.958 107.01 155.676 105.912 155.676 104.7C155.676 103.488 155.958 102.396 156.522 101.424C157.098 100.44 157.89 99.672 158.898 99.12C159.906 98.568 161.034 98.292 162.282 98.292C163.218 98.292 164.082 98.448 164.874 98.76C165.666 99.072 166.338 99.528 166.89 100.128L166.044 100.974C165.06 99.978 163.818 99.48 162.318 99.48C161.322 99.48 160.416 99.708 159.6 100.164C158.784 100.62 158.142 101.244 157.674 102.036C157.218 102.828 156.99 103.716 156.99 104.7C156.99 105.684 157.218 106.572 157.674 107.364C158.142 108.156 158.784 108.78 159.6 109.236C160.416 109.692 161.322 109.92 162.318 109.92C163.83 109.92 165.072 109.416 166.044 108.408L166.89 109.254C166.338 109.854 165.66 110.316 164.856 110.64C164.064 110.952 163.2 111.108 162.264 111.108ZM172.02 99.552H167.592V98.4H177.78V99.552H173.352V111H172.02V99.552ZM179.907 98.4H181.239V111H179.907V98.4ZM195.674 98.4L190.094 111H188.78L183.2 98.4H184.64L189.464 109.344L194.324 98.4H195.674ZM205.018 107.634H197.998L196.486 111H195.1L200.86 98.4H202.174L207.934 111H206.53L205.018 107.634ZM204.532 106.554L201.508 99.786L198.484 106.554H204.532ZM219.446 98.4C221.054 98.4 222.314 98.784 223.226 99.552C224.138 100.32 224.594 101.376 224.594 102.72C224.594 104.064 224.138 105.12 223.226 105.888C222.314 106.644 221.054 107.022 219.446 107.022H216.062V111H214.73V98.4H219.446ZM219.41 105.852C220.658 105.852 221.612 105.582 222.272 105.042C222.932 104.49 223.262 103.716 223.262 102.72C223.262 101.7 222.932 100.92 222.272 100.38C221.612 99.828 220.658 99.552 219.41 99.552H216.062V105.852H219.41ZM234.743 107.634H227.723L226.211 111H224.825L230.585 98.4H231.899L237.659 111H236.255L234.743 107.634ZM234.257 106.554L231.233 99.786L228.209 106.554H234.257ZM248.347 111L245.467 106.95C245.143 106.986 244.807 107.004 244.459 107.004H241.075V111H239.743V98.4H244.459C246.067 98.4 247.327 98.784 248.239 99.552C249.151 100.32 249.607 101.376 249.607 102.72C249.607 103.704 249.355 104.538 248.851 105.222C248.359 105.894 247.651 106.38 246.727 106.68L249.805 111H248.347ZM244.423 105.87C245.671 105.87 246.625 105.594 247.285 105.042C247.945 104.49 248.275 103.716 248.275 102.72C248.275 101.7 247.945 100.92 247.285 100.38C246.625 99.828 245.671 99.552 244.423 99.552H241.075V105.87H244.423ZM260.653 107.634H253.633L252.121 111H250.735L256.495 98.4H257.809L263.569 111H262.165L260.653 107.634ZM260.167 106.554L257.143 99.786L254.119 106.554H260.167ZM272.812 99.552H268.385V98.4H278.573V99.552H274.145V111H272.812V99.552ZM286.033 111.108C284.785 111.108 283.651 110.832 282.631 110.28C281.623 109.716 280.831 108.948 280.255 107.976C279.691 107.004 279.409 105.912 279.409 104.7C279.409 103.488 279.691 102.396 280.255 101.424C280.831 100.452 281.623 99.69 282.631 99.138C283.651 98.574 284.785 98.292 286.033 98.292C287.281 98.292 288.403 98.568 289.399 99.12C290.407 99.672 291.199 100.44 291.775 101.424C292.351 102.396 292.639 103.488 292.639 104.7C292.639 105.912 292.351 107.01 291.775 107.994C291.199 108.966 290.407 109.728 289.399 110.28C288.403 110.832 287.281 111.108 286.033 111.108ZM286.033 109.92C287.029 109.92 287.929 109.698 288.733 109.254C289.537 108.798 290.167 108.174 290.623 107.382C291.079 106.578 291.307 105.684 291.307 104.7C291.307 103.716 291.079 102.828 290.623 102.036C290.167 101.232 289.537 100.608 288.733 100.164C287.929 99.708 287.029 99.48 286.033 99.48C285.037 99.48 284.131 99.708 283.315 100.164C282.511 100.608 281.875 101.232 281.407 102.036C280.951 102.828 280.723 103.716 280.723 104.7C280.723 105.684 280.951 106.578 281.407 107.382C281.875 108.174 282.511 108.798 283.315 109.254C284.131 109.698 285.037 109.92 286.033 109.92ZM295.624 98.4H300.754C302.086 98.4 303.262 98.67 304.282 99.21C305.302 99.738 306.094 100.482 306.658 101.442C307.222 102.39 307.504 103.476 307.504 104.7C307.504 105.924 307.222 107.016 306.658 107.976C306.094 108.924 305.302 109.668 304.282 110.208C303.262 110.736 302.086 111 300.754 111H295.624V98.4ZM300.682 109.848C301.786 109.848 302.752 109.632 303.58 109.2C304.408 108.756 305.05 108.15 305.506 107.382C305.962 106.602 306.19 105.708 306.19 104.7C306.19 103.692 305.962 102.804 305.506 102.036C305.05 101.256 304.408 100.65 303.58 100.218C302.752 99.774 301.786 99.552 300.682 99.552H296.956V109.848H300.682ZM316.003 111.108C314.755 111.108 313.621 110.832 312.601 110.28C311.593 109.716 310.801 108.948 310.225 107.976C309.661 107.004 309.379 105.912 309.379 104.7C309.379 103.488 309.661 102.396 310.225 101.424C310.801 100.452 311.593 99.69 312.601 99.138C313.621 98.574 314.755 98.292 316.003 98.292C317.251 98.292 318.373 98.568 319.369 99.12C320.377 99.672 321.169 100.44 321.745 101.424C322.321 102.396 322.609 103.488 322.609 104.7C322.609 105.912 322.321 107.01 321.745 107.994C321.169 108.966 320.377 109.728 319.369 110.28C318.373 110.832 317.251 111.108 316.003 111.108ZM316.003 109.92C316.999 109.92 317.899 109.698 318.703 109.254C319.507 108.798 320.137 108.174 320.593 107.382C321.049 106.578 321.277 105.684 321.277 104.7C321.277 103.716 321.049 102.828 320.593 102.036C320.137 101.232 319.507 100.608 318.703 100.164C317.899 99.708 316.999 99.48 316.003 99.48C315.007 99.48 314.101 99.708 313.285 100.164C312.481 100.608 311.845 101.232 311.377 102.036C310.921 102.828 310.693 103.716 310.693 104.7C310.693 105.684 310.921 106.578 311.377 107.382C311.845 108.174 312.481 108.798 313.285 109.254C314.101 109.698 315.007 109.92 316.003 109.92ZM329.069 111.108C328.133 111.108 327.233 110.958 326.369 110.658C325.517 110.358 324.857 109.962 324.389 109.47L324.911 108.444C325.367 108.9 325.973 109.272 326.729 109.56C327.485 109.836 328.265 109.974 329.069 109.974C330.197 109.974 331.043 109.77 331.607 109.362C332.171 108.942 332.453 108.402 332.453 107.742C332.453 107.238 332.297 106.836 331.985 106.536C331.685 106.236 331.313 106.008 330.869 105.852C330.425 105.684 329.807 105.504 329.015 105.312C328.067 105.072 327.311 104.844 326.747 104.628C326.183 104.4 325.697 104.058 325.289 103.602C324.893 103.146 324.695 102.528 324.695 101.748C324.695 101.112 324.863 100.536 325.199 100.02C325.535 99.492 326.051 99.072 326.747 98.76C327.443 98.448 328.307 98.292 329.339 98.292C330.059 98.292 330.761 98.394 331.445 98.598C332.141 98.79 332.741 99.06 333.245 99.408L332.795 100.47C332.267 100.122 331.703 99.864 331.103 99.696C330.503 99.516 329.915 99.426 329.339 99.426C328.235 99.426 327.401 99.642 326.837 100.074C326.285 100.494 326.009 101.04 326.009 101.712C326.009 102.216 326.159 102.624 326.459 102.936C326.771 103.236 327.155 103.47 327.611 103.638C328.079 103.794 328.703 103.968 329.483 104.16C330.407 104.388 331.151 104.616 331.715 104.844C332.291 105.06 332.777 105.396 333.173 105.852C333.569 106.296 333.767 106.902 333.767 107.67C333.767 108.306 333.593 108.888 333.245 109.416C332.909 109.932 332.387 110.346 331.679 110.658C330.971 110.958 330.101 111.108 329.069 111.108Z" fill="current"/>
</svg>
