<svg width="24" height="24" viewBox="0 0 24 24" fill="none" xmlns="http://www.w3.org/2000/svg">
<path d="M18.4051 7.4999H5.60511C4.88511 7.4999 4.30511 6.9199 4.30511 6.1999C4.30511 5.4799 4.88511 4.8999 5.60511 4.8999H18.4051C19.1251 4.8999 19.7051 5.4799 19.7051 6.1999C19.7051 6.9199 19.1251 7.4999 18.4051 7.4999ZM19.7051 11.9999C19.7051 11.2799 19.1251 10.6999 18.4051 10.6999H5.60511C4.88511 10.6999 4.30511 11.2799 4.30511 11.9999C4.30511 12.7199 4.88511 13.2999 5.60511 13.2999H18.4051C19.1251 13.2999 19.7051 12.7199 19.7051 11.9999ZM19.7051 17.7999C19.7051 17.0799 19.1251 16.4999 18.4051 16.4999H5.60511C4.88511 16.4999 4.30511 17.0799 4.30511 17.7999C4.30511 18.5199 4.88511 19.0999 5.60511 19.0999H18.4051C19.1251 19.0999 19.7051 18.5199 19.7051 17.7999Z" fill="#1D2130"/>
</svg>
