<svg width="24" height="24" viewBox="0 0 24 24" fill="none" xmlns="http://www.w3.org/2000/svg">
<path fill-rule="evenodd" clip-rule="evenodd" d="M3 3C3 1.89543 3.89543 1 5 1H19C20.1046 1 21 1.89544 21 3V21C21 22.1046 20.1046 23 19 23H5C3.89544 23 3 22.1046 3 21V3ZM19 3H5V14H19V3ZM19 16H5V21H19V16ZM10 18.5C10 17.9477 10.4477 17.5 11 17.5H13C13.5523 17.5 14 17.9477 14 18.5C14 19.0523 13.5523 19.5 13 19.5H11C10.4477 19.5 10 19.0523 10 18.5Z" fill="#1D1E22"/>
<path fill-rule="evenodd" clip-rule="evenodd" d="M5 16H19V21H5V16ZM10 18.5C10 17.9477 10.4477 17.5 11 17.5H13C13.5523 17.5 14 17.9477 14 18.5C14 19.0523 13.5523 19.5 13 19.5H11C10.4477 19.5 10 19.0523 10 18.5Z" fill="current"/>
</svg>
