<svg width="24" height="24" viewBox="0 0 24 24" fill="none" xmlns="http://www.w3.org/2000/svg">
<path fill-rule="evenodd" clip-rule="evenodd" d="M1 12C1 5.92487 5.92487 1 12 1C18.0751 1 23 5.92487 23 12C23 18.0751 18.0751 23 12 23C5.92487 23 1 18.0751 1 12ZM12 3C7.02943 3 3 7.02943 3 12C3 16.9706 7.02943 21 12 21C16.9706 21 21 16.9706 21 12C21 7.02943 16.9706 3 12 3ZM9.5 7.66987C9.8094 7.49124 10.1906 7.49124 10.5 7.66987L16.5 11.134C16.8094 11.3126 17 11.6427 17 12C17 12.3573 16.8094 12.6874 16.5 12.866L10.5 16.3301C10.1906 16.5088 9.8094 16.5088 9.5 16.3301C9.1906 16.1515 9 15.8214 9 15.4641V8.5359C9 8.17863 9.1906 7.84851 9.5 7.66987ZM11 10.268V13.732L14 12L11 10.268Z" fill="#1D2130"/>
</svg>
