<svg width="24" height="24" viewBox="0 0 24 24" fill="none" xmlns="http://www.w3.org/2000/svg">
<path d="M2 21H22" stroke="#1D1E22" stroke-width="2" stroke-linecap="round" stroke-linejoin="round"/>
<path d="M9 11H5C4.44772 11 4 11.4477 4 12V20C4 20.5523 4.44772 21 5 21H9C9.55228 21 10 20.5523 10 20V12C10 11.4477 9.55228 11 9 11Z" fill="current" stroke="#1D1E22" stroke-width="2" stroke-linejoin="round"/>
<path d="M19 2H11C10.4477 2 10 2.44772 10 3V20C10 20.5523 10.4477 21 11 21H19C19.5523 21 20 20.5523 20 20V3C20 2.44772 19.5523 2 19 2Z" fill="current" stroke="#1D1E22" stroke-width="2" stroke-linejoin="round"/>
<path d="M14 16.0042H16" stroke="#1D1E22" stroke-width="2" stroke-linecap="round" stroke-linejoin="round"/>
<path d="M6 16.0042H8" stroke="#1D1E22" stroke-width="2" stroke-linecap="round" stroke-linejoin="round"/>
<path d="M14 11.5042H16" stroke="#1D1E22" stroke-width="2" stroke-linecap="round" stroke-linejoin="round"/>
<path d="M14 7.00415H16" stroke="#1D1E22" stroke-width="2" stroke-linecap="round" stroke-linejoin="round"/>
<path d="M13 16.0039C13 15.4516 13.4477 15.0039 14 15.0039H16C16.5523 15.0039 17 15.4516 17 16.0039C17 16.5562 16.5523 17.0039 16 17.0039H14C13.4477 17.0039 13 16.5562 13 16.0039Z" fill="#1D1E22"/>
<path d="M13 11.5039C13 10.9516 13.4477 10.5039 14 10.5039H16C16.5523 10.5039 17 10.9516 17 11.5039C17 12.0562 16.5523 12.5039 16 12.5039H14C13.4477 12.5039 13 12.0562 13 11.5039Z" fill="#1D1E22"/>
<path d="M14 6.00391C13.4477 6.00391 13 6.45162 13 7.00391C13 7.55619 13.4477 8.00391 14 8.00391H16C16.5523 8.00391 17 7.55619 17 7.00391C17 6.45162 16.5523 6.00391 16 6.00391H14Z" fill="#1D1E22"/>
<path d="M9 16.0039C9 16.5562 8.55228 17.0039 8 17.0039H6C5.44772 17.0039 5 16.5562 5 16.0039C5 15.4516 5.44772 15.0039 6 15.0039H8C8.55228 15.0039 9 15.4516 9 16.0039Z" fill="#1D1E22"/>
<path fill-rule="evenodd" clip-rule="evenodd" d="M11 1C9.89543 1 9 1.89543 9 3V10H5C3.89543 10 3 10.8954 3 12V20H2C1.44772 20 1 20.4477 1 21C1 21.5523 1.44772 22 2 22H22C22.5523 22 23 21.5523 23 21C23 20.4477 22.5523 20 22 20H21V3C21 1.89543 20.1046 1 19 1H11ZM19 20V3H11V20H19ZM9 12H5V16.0039V20H9V16.0039V12Z" fill="#1D1E22"/>
</svg>
