<svg width="70" height="70" viewBox="0 0 70 70" fill="none" xmlns="http://www.w3.org/2000/svg">
<circle cx="35" cy="35" r="35" fill="white"/>
<circle cx="35" cy="35" r="34.5" stroke="#EB882D" stroke-opacity="0.2"/>
<path fill-rule="evenodd" clip-rule="evenodd" d="M38.0254 27.9181C40.6041 26.7255 42.7534 25.8771 44.6096 25.1306C45.1791 28.0434 44.8631 30.6809 44.1577 33.1976C45.7547 33.9644 47.3671 34.4264 48.9971 34.5378C49.7365 31.3291 50.3693 28.9861 49.7471 25.591C49.5251 24.7342 49.5689 24.3227 48.5323 23.7007C47.839 23.2846 46.8351 22.944 45.8153 22.5567C44.2679 21.9689 42.6484 21.1977 41.6656 21.031C39.6064 21.9028 37.5471 22.7746 35.4878 23.6464C36.1464 25.3538 37.0206 26.7348 38.0254 27.9181Z" fill="#EB882D" fill-opacity="0.5"/>
<path fill-rule="evenodd" clip-rule="evenodd" d="M38.0254 42.512C40.6041 43.7045 42.7534 44.553 44.6096 45.2994C45.1791 42.3867 44.8631 39.7491 44.1577 37.2324C45.7547 36.4657 47.3671 36.0036 48.9971 35.8922C49.7365 39.101 50.3693 41.4439 49.7471 44.839C49.5251 45.6959 49.5689 46.1073 48.5323 46.7294C47.839 47.1455 46.8351 47.4861 45.8153 47.8734C44.2679 48.4611 42.6484 49.2324 41.6656 49.3991C39.6064 48.5273 37.5471 47.6555 35.4878 46.7837C36.1464 45.0763 37.0206 43.6953 38.0254 42.512Z" fill="#EB882D" fill-opacity="0.5"/>
<path fill-rule="evenodd" clip-rule="evenodd" d="M31.9745 27.887C29.3957 26.6945 27.2465 25.846 25.3902 25.0996C24.8208 28.0123 25.1368 30.6499 25.8422 33.1666C24.2451 33.9333 22.6328 34.3954 21.0027 34.5068C20.2633 31.2981 19.6305 28.9551 20.2528 25.56C20.4748 24.7031 20.431 24.2917 21.4676 23.6696C22.1609 23.2536 23.1648 22.9129 24.1845 22.5257C25.732 21.9379 27.3515 21.1667 28.3342 21C30.3935 21.8718 32.4528 22.7435 34.5121 23.6153C33.8534 25.3227 32.9793 26.7037 31.9745 27.887Z" fill="#EB882D" fill-opacity="0.5"/>
<path fill-rule="evenodd" clip-rule="evenodd" d="M31.9789 42.512C29.4002 43.7045 27.2509 44.553 25.3946 45.2994C24.8252 42.3867 25.1411 39.7491 25.8466 37.2324C24.2496 36.4657 22.6372 36.0036 21.0071 35.8922C20.2677 39.1009 19.6349 41.4439 20.2572 44.839C20.4792 45.6958 20.4354 46.1073 21.472 46.7294C22.1653 47.1455 23.1692 47.486 24.1889 47.8733C25.7363 48.4611 27.3559 49.2323 28.3386 49.399C30.3979 48.5272 32.4572 47.6554 34.5164 46.7836C33.8578 45.0763 32.9836 43.6952 31.9789 42.512Z" fill="#EB882D" fill-opacity="0.5"/>
<path d="M34.9617 40.1543C37.7162 40.1543 39.9492 37.9273 39.9492 35.18C39.9492 32.4328 37.7162 30.2057 34.9617 30.2057C32.2071 30.2057 29.9741 32.4328 29.9741 35.18C29.9741 37.9273 32.2071 40.1543 34.9617 40.1543Z" fill="#F09815" fill-opacity="0.5"/>
</svg>
