<svg width="24" height="24" viewBox="0 0 24 24" fill="none" xmlns="http://www.w3.org/2000/svg">
<path fill-rule="evenodd" clip-rule="evenodd" d="M4.5 3.5C4.5 2.94772 4.94772 2.5 5.5 2.5H18.5C19.0523 2.5 19.5 2.94772 19.5 3.5V4.5H22C22.5523 4.5 23 4.94772 23 5.5V18.5C23 19.0523 22.5523 19.5 22 19.5H19.5V20.5C19.5 21.0523 19.0523 21.5 18.5 21.5H5.5C4.94772 21.5 4.5 21.0523 4.5 20.5V19.5H2C1.44772 19.5 1 19.0523 1 18.5V5.5C1 4.94772 1.44772 4.5 2 4.5H4.5V3.5ZM6.5 19.5H17.5V4.5H6.5V19.5ZM4.5 6.5H3V17.5H4.5V6.5ZM19.5 17.5H21V6.5H19.5V17.5ZM10.5281 9.11833C10.8533 8.94431 11.2478 8.96338 11.5547 9.16795L14.5547 11.1679C14.8329 11.3534 15 11.6656 15 12C15 12.3344 14.8329 12.6466 14.5547 12.8321L11.5547 14.8321C11.2478 15.0366 10.8533 15.0557 10.5281 14.8817C10.203 14.7077 10 14.3688 10 14V10C10 9.6312 10.203 9.29234 10.5281 9.11833ZM12 11.8685V12.1315L12.1972 12L12 11.8685Z" fill="#1D1E22"/>
<path d="M3 6.5H4.5V17.5H3V6.5Z" fill="current"/>
<path fill-rule="evenodd" clip-rule="evenodd" d="M17.5 19.5H6.5V4.5H17.5V19.5ZM10.5281 9.11833C10.8533 8.94431 11.2478 8.96338 11.5547 9.16795L14.5547 11.1679C14.8329 11.3534 15 11.6656 15 12C15 12.3344 14.8329 12.6466 14.5547 12.8321L11.5547 14.8321C11.2478 15.0366 10.8533 15.0557 10.5281 14.8817C10.203 14.7077 10 14.3688 10 14V10C10 9.6312 10.203 9.29234 10.5281 9.11833Z" fill="current"/>
<path d="M21 17.5H19.5V6.5H21V17.5Z" fill="current"/>
<path d="M12 12.1315V11.8685L12.1972 12L12 12.1315Z" fill="current"/>
</svg>
