<svg width="58" height="58" viewBox="0 0 58 58" fill="none" xmlns="http://www.w3.org/2000/svg">
<rect width="58" height="58" fill="white"/>
<path d="M5.92078 52.3207L9.18328 40.479C7.12911 36.9748 6.04161 32.9873 6.04161 28.9998C6.04161 16.3123 16.3124 6.0415 29 6.0415C35.1625 6.0415 40.8416 8.45817 45.1916 12.8082C49.5416 17.1582 51.9583 22.8373 51.9583 28.9998C51.9583 41.6873 41.6875 51.9582 29 51.9582C25.1333 51.9582 21.3874 50.9915 18.0041 49.179L5.92078 52.3207Z" fill="white"/>
<path d="M5.92082 52.925C5.79999 52.925 5.55832 52.8042 5.43749 52.8042C5.31665 52.6833 5.19582 52.4417 5.31665 52.2L8.45832 40.4792C6.52499 36.975 5.43749 32.9875 5.43749 28.8792C5.43749 15.95 16.0708 5.4375 29 5.4375C35.2833 5.4375 41.2042 7.85417 45.675 12.325C50.1458 16.7958 52.5625 22.7167 52.5625 29C52.5625 41.9292 42.05 52.5625 29 52.5625C25.1333 52.5625 21.3875 51.5958 18.0042 49.7833L6.04165 52.925H5.92082Z" fill="white"/>
<path d="M29.0001 6.04183C35.1626 6.04183 40.8417 8.4585 45.1917 12.8085C49.5417 17.1585 51.9584 22.8377 51.9584 29.0002C51.9584 41.6877 41.6876 51.9585 29.0001 51.9585C25.1334 51.9585 21.3876 50.9918 18.0042 49.1793L5.92088 52.321L9.18338 40.4793C7.12922 36.9752 6.04172 32.9877 6.04172 29.0002C6.04172 16.3127 16.3126 6.04183 29.0001 6.04183ZM29.0001 4.8335C15.7084 4.8335 4.83338 15.7085 4.83338 29.0002C4.83338 33.1085 5.80005 37.096 7.85422 40.6002L4.71255 51.9585C4.59172 52.321 4.71255 52.8043 5.07505 53.1668C5.31672 53.4085 5.55838 53.5293 5.92088 53.5293C6.04172 53.5293 6.16255 53.5293 6.28338 53.5293L18.0042 50.5085C21.3876 52.321 25.2542 53.1668 29.1209 53.1668C42.4126 53.1668 53.2876 42.2918 53.2876 29.0002C53.2876 22.596 50.7501 16.4335 46.2792 11.9627C41.5667 7.371 35.5251 4.8335 29.0001 4.8335Z" fill="#CFD8DC"/>
<path d="M42.5333 15.4665C38.9083 11.8415 34.1958 9.9082 29 9.9082C18.4875 9.9082 9.90833 18.4874 9.90833 28.9999C9.90833 32.6249 10.875 36.129 12.8083 39.1499L13.2917 39.8749L11.3583 46.8832L18.6083 44.9499L19.3333 45.3124C22.2333 47.004 25.6167 47.9707 29 47.9707C39.5125 47.9707 48.0917 39.3915 48.0917 28.879C48.0917 23.9249 46.1583 19.0915 42.5333 15.4665Z" fill="#40C351"/>
<path fill-rule="evenodd" clip-rule="evenodd" d="M23.3208 19.3334C22.8375 18.3667 22.475 18.3667 21.9917 18.3667C21.6292 18.3667 21.2667 18.3667 20.9042 18.3667C20.5417 18.3667 19.9375 18.4875 19.3333 19.0917C18.85 19.6959 17.2792 21.025 17.2792 23.925C17.2792 26.825 19.3333 29.4834 19.575 29.8459C19.8167 30.2084 23.5625 36.25 29.3625 38.5459C34.1958 40.4792 35.1625 40.1167 36.25 39.9959C37.3375 39.875 39.6333 38.6667 40.1167 37.2167C40.6 35.8875 40.6 34.6792 40.4792 34.4375C40.3583 34.1959 39.9958 34.075 39.3917 33.7125C38.7875 33.35 36.0083 32.0209 35.525 31.9C35.0417 31.6584 34.5583 31.6584 34.1958 32.1417C33.8333 32.7459 32.7458 33.9542 32.3833 34.4375C32.0208 34.8 31.6583 34.9209 31.175 34.5584C30.5708 34.3167 28.7583 33.7125 26.5833 31.6584C24.8917 30.0875 23.6833 28.275 23.4417 27.6709C23.0792 27.0667 23.4417 26.825 23.6833 26.4625C23.925 26.2209 24.2875 25.7375 24.5292 25.4959C24.7708 25.1334 24.8917 24.8917 25.1333 24.5292C25.375 24.1667 25.2542 23.8042 25.1333 23.5625C24.8917 23.3209 23.8042 20.5417 23.3208 19.3334Z" fill="white"/>
</svg>
